<?xml version="1.0" encoding="UTF-8" standalone="no"?>
<!-- Created with Inkscape (http://www.inkscape.org/) -->

<svg
   width="135.49687mm"
   height="135.47197mm"
   viewBox="0 0 135.49687 135.47197"
   version="1.1"
   id="svg5"
   inkscape:version="1.1.1 (3bf5ae0d25, 2021-09-20, custom)"
   sodipodi:docname="brain-cog.svg"
   xmlns:inkscape="http://www.inkscape.org/namespaces/inkscape"
   xmlns:sodipodi="http://sodipodi.sourceforge.net/DTD/sodipodi-0.dtd"
   xmlns="http://www.w3.org/2000/svg"
   xmlns:svg="http://www.w3.org/2000/svg">
  <sodipodi:namedview
     id="namedview7"
     pagecolor="#ffffff"
     bordercolor="#111111"
     borderopacity="1"
     inkscape:pageshadow="0"
     inkscape:pageopacity="0"
     inkscape:pagecheckerboard="1"
     inkscape:document-units="mm"
     showgrid="false"
     inkscape:zoom="0.57370932"
     inkscape:cx="288.47361"
     inkscape:cy="-95.867364"
     inkscape:window-width="1916"
     inkscape:window-height="1023"
     inkscape:window-x="0"
     inkscape:window-y="28"
     inkscape:window-maximized="1"
     inkscape:current-layer="layer1" />
  <defs
     id="defs2" />
  <g
     inkscape:label="Layer 1"
     inkscape:groupmode="layer"
     id="layer1"
     transform="translate(-28.541681,-173.67925)">
    <g
       id="g1170"
       transform="translate(-15.381556,137.00885)"
       style="fill:#000000">
      <path
         style="fill:#000000;stroke-width:0.264583"
         d="m 99.193298,171.65832 c -0.2336,-0.24601 -1.467207,-2.94824 -2.74135,-6.00495 l -2.316623,-5.55765 -2.021149,-0.75576 c -1.111631,-0.41567 -3.019896,-1.21871 -4.240586,-1.78454 -1.220692,-0.56582 -2.351786,-1.02866 -2.513541,-1.02852 -0.161758,1.4e-4 -2.615824,1.54784 -5.45348,3.43933 -2.837657,1.89149 -5.278983,3.43919 -5.425168,3.43933 -0.146187,1.4e-4 -5.134112,-4.86915 -11.084278,-10.82065 -8.571647,-8.57355 -10.789906,-10.93018 -10.680878,-11.3471 0.07568,-0.28942 1.659688,-2.76005 3.520008,-5.49029 l 3.382402,-4.96408 -0.427224,-1.08517 c -0.234972,-0.59684 -0.957231,-2.3752 -1.605019,-3.95191 -0.647788,-1.57671 -1.230644,-3.06884 -1.295236,-3.31584 -0.07824,-0.29919 -2.007324,-1.23219 -5.779669,-2.79533 -3.114226,-1.29044 -5.870588,-2.56154 -6.125249,-2.82467 -0.42706,-0.44126 -0.463021,-1.40544 -0.463021,-12.41462 0,-10.777689 0.04272,-11.979321 0.440195,-12.380336 0.242108,-0.244266 2.990469,-1.515684 6.10747,-2.825372 l 5.667275,-2.38125 1.007428,-2.645833 c 0.554085,-1.455208 1.318067,-3.333837 1.697738,-4.174731 0.37967,-0.840896 0.69031,-1.68272 0.69031,-1.870723 0,-0.188002 -1.547813,-2.651331 -3.439583,-5.474065 -1.891771,-2.822733 -3.439583,-5.255672 -3.439583,-5.40653 0,-0.150857 4.869404,-5.142605 10.820898,-11.092771 8.573559,-8.571647 10.930184,-10.789906 11.347107,-10.680878 0.289414,0.07568 2.731976,1.640562 5.427913,3.477507 2.695935,1.836946 5.034539,3.339901 5.196895,3.339901 0.162354,0 0.976406,-0.341189 1.809002,-0.758197 0.832593,-0.417008 2.644901,-1.20013 4.027349,-1.74027 1.382448,-0.540141 2.644736,-1.121686 2.805084,-1.292324 0.160345,-0.170638 1.279572,-2.6915 2.487165,-5.601917 1.207595,-2.910416 2.410875,-5.500026 2.673958,-5.754687 0.441174,-0.427052 1.404962,-0.463021 12.406712,-0.463021 11.00256,0 11.96533,0.03594 12.40456,0.463021 0.2619,0.254661 1.45645,2.784739 2.65456,5.622395 1.19811,2.837656 2.3183,5.289555 2.48932,5.448663 0.17101,0.159108 1.26343,0.624575 2.4276,1.034371 1.16416,0.409796 3.11558,1.202351 4.33648,1.761233 1.22089,0.558882 2.32462,1.01615 2.45272,1.01615 0.1281,0 2.38114,-1.435368 5.00676,-3.189706 2.62563,-1.754338 4.95686,-3.259929 5.18053,-3.345758 0.48602,-0.186503 22.04955,21.23298 22.04955,21.902256 0,0.23114 -1.42875,2.518932 -3.175,5.08398 -1.74625,2.565048 -3.175,4.850984 -3.175,5.079854 0,0.228872 0.3196,1.037251 0.71022,1.796396 0.39062,0.759148 1.26092,2.809018 1.93399,4.555268 l 1.22377,3.175 5.16592,2.252366 c 2.84125,1.2388 5.36424,2.450687 5.60663,2.693079 0.39822,0.398214 0.44072,1.592551 0.44072,12.384759 0,10.79221 -0.0425,11.98655 -0.44072,12.38476 -0.24239,0.2424 -2.76538,1.45428 -5.60663,2.69308 l -5.16592,2.25237 -1.23258,3.175 c -0.67792,1.74625 -1.60004,3.93306 -2.04916,4.85959 l -0.8166,1.68458 3.17259,4.74824 c 1.74493,2.61154 3.24282,4.93125 3.32865,5.15491 0.18213,0.47463 -21.22334,22.04809 -21.88009,22.05181 -0.21894,0.001 -2.62144,-1.50357 -5.33888,-3.34403 l -4.94079,-3.34628 -2.73213,1.20379 c -1.50266,0.66208 -3.50602,1.47117 -4.45191,1.79797 -0.94588,0.3268 -1.85971,0.72436 -2.03072,0.88347 -0.17102,0.1591 -1.29121,2.611 -2.48932,5.44866 -1.19811,2.83765 -2.39266,5.36773 -2.65456,5.62239 -0.4398,0.42764 -1.392,0.46182 -12.45965,0.4473 -10.89591,-0.0143 -12.021999,-0.0563 -12.408182,-0.46302 z m 10.386942,-23.27441 2.07633,-1.06083 2.05674,1.05082 c 1.73903,0.88849 2.38277,1.07196 4.16719,1.18765 5.27972,0.3423 10.60366,-2.19794 14.33649,-6.84044 0.42156,-0.52429 0.9015,-0.75206 1.84479,-0.87548 2.14085,-0.28012 5.41628,-1.38824 7.21967,-2.4425 3.55562,-2.07861 6.91018,-6.19717 8.1952,-10.06167 0.72054,-2.16692 1.16469,-5.41725 0.97023,-7.10031 l -0.15538,-1.34486 2.2165,-2.25677 c 3.65339,-3.71977 5.44146,-8.0499 5.44146,-13.17745 0,-3.12986 -0.56967,-5.541379 -1.9877,-8.414277 -0.97009,-1.96537 -1.64489,-2.896473 -3.34986,-4.622191 l -2.13506,-2.161046 -0.0605,-2.786141 c -0.0705,-3.247144 -0.59131,-5.465138 -1.89667,-8.077806 -2.51609,-5.035938 -6.89895,-8.53786 -12.39566,-9.904174 -1.22964,-0.305649 -2.22054,-0.707006 -2.37472,-0.961861 -3.05793,-5.054665 -6.85692,-7.958103 -11.78326,-9.005546 -3.16437,-0.672811 -5.7119,-0.393589 -8.2527,0.904535 l -2.05674,1.050819 -2.05675,-1.050819 c -2.54079,-1.298124 -5.08832,-1.577346 -8.25269,-0.904535 -4.926347,1.047443 -8.725338,3.950881 -11.78327,9.005546 -0.153443,0.253635 -1.13543,0.653794 -2.337724,0.952617 -5.488079,1.364038 -10.051507,4.987798 -12.433751,9.873479 -1.312278,2.691318 -1.825448,4.888952 -1.895576,8.117745 l -0.06052,2.786141 -2.096413,2.121927 c -3.606501,3.65039 -5.385395,7.969497 -5.385395,13.075587 0,5.16353 1.78407,9.45461 5.483436,13.18887 l 2.188025,2.20866 -0.157538,1.36321 c -0.1964,1.69948 0.244734,4.9433 0.968078,7.11865 1.285018,3.8645 4.639577,7.98306 8.195202,10.06167 1.803386,1.05426 5.078817,2.16238 7.219663,2.4425 0.943288,0.12342 1.423234,0.35119 1.844794,0.87548 1.62283,2.01831 4.030694,4.01939 6.07835,5.05148 2.803366,1.41299 4.967369,1.89313 7.973969,1.76922 2.1296,-0.0878 2.55451,-0.19878 4.43177,-1.1579 z m -7.0518,-5.97693 c -3.102965,-0.79578 -5.4307,-2.76824 -6.818386,-5.77774 l -0.854528,-1.85322 -1.852083,0.13169 c -4.841901,0.34427 -9.01787,-1.63798 -11.40847,-5.41539 -1.704369,-2.69309 -2.137892,-6.41157 -1.159238,-9.94316 0.291042,-1.05026 0.529167,-2.02706 0.529167,-2.17066 0,-0.1436 -0.904256,-0.75737 -2.009455,-1.36394 -3.655769,-2.0064 -5.869326,-4.95315 -6.504892,-8.65948 -0.855078,-4.98644 1.653066,-9.832484 6.3725,-12.312477 1.051565,-0.552582 1.969249,-1.154051 2.0393,-1.336601 0.07005,-0.182549 -0.116343,-1.21136 -0.414211,-2.286248 -1.303488,-4.7038 -0.242038,-9.073457 2.958581,-12.179554 2.333691,-2.264769 4.74939,-3.181588 8.534516,-3.23906 l 2.641963,-0.04011 0.449794,-1.667084 c 1.210514,-4.486576 3.840035,-7.12729 7.940512,-7.974303 2.48321,-0.512942 4.23089,0.25645 4.96127,2.184133 0.19475,0.514014 0.28208,11.664819 0.28179,35.983324 -2.6e-4,33.02577 -0.0295,35.29547 -0.46302,36.14574 -0.91371,1.7919 -2.7391,2.41169 -5.22511,1.77414 z m -3.571872,-28.0483 v -3.5388 L 98.1732,110.66321 c -1.070523,-0.21411 -2.824186,-1.85776 -3.201323,-3.00049 -0.804984,-2.43912 0.352687,-5.00453 2.707256,-5.99931 l 1.277435,-0.5397 v -3.423926 -3.423925 l -1.358601,0.160907 c -2.90743,0.344342 -6.724703,2.918578 -8.256582,5.567954 -1.362305,2.3561 -1.900439,5.15688 -1.494549,7.77855 0.738222,4.76822 4.407788,8.70247 9.059518,9.71298 0.909336,0.19754 1.742636,0.36863 1.851776,0.3802 0.109141,0.0116 0.198438,-1.57143 0.198438,-3.51777 z m 18.690842,28.14762 c -0.41582,-0.13012 -0.9978,-0.45183 -1.29329,-0.71489 -1.30358,-1.16055 -1.25797,0.19424 -1.25797,-37.36195 0,-24.276728 0.0875,-35.411717 0.28221,-35.925688 0.73038,-1.927683 2.47806,-2.697075 4.96126,-2.184133 4.10048,0.847013 6.73,3.487727 7.94052,7.974303 l 0.44979,1.667084 2.64196,0.04011 c 3.78513,0.05747 6.20083,0.974291 8.53452,3.23906 3.20062,3.106097 4.26207,7.475754 2.95858,12.179554 -0.29787,1.074888 -0.48426,2.103699 -0.41421,2.286248 0.07,0.18255 0.98773,0.784019 2.0393,1.336601 1.05156,0.552582 2.47891,1.571675 3.1719,2.264656 2.49806,2.498069 3.80775,6.504005 3.2297,9.878655 -0.66143,3.8614 -2.83869,6.80579 -6.54583,8.85218 -1.09869,0.60649 -1.99762,1.21494 -1.99762,1.35211 0,0.13717 0.23813,1.1087 0.52917,2.15896 2.39563,8.64494 -3.64168,16.00615 -12.5921,15.35338 l -1.87647,-0.13685 -0.45294,1.15704 c -1.44023,3.67909 -4.64279,6.2245 -8.40591,6.68107 -0.6306,0.0765 -1.48675,0.0326 -1.90257,-0.0975 z m 9.76424,-25.28589 c 2.91219,-0.79556 5.91215,-3.48201 7.23967,-6.4831 1.54502,-3.49277 1.13713,-8.07225 -0.99499,-11.171187 -1.83162,-2.662155 -5.13714,-4.797263 -7.94116,-5.129357 l -1.3586,-0.160907 v 3.423925 3.423926 l 1.27743,0.5397 c 2.35457,0.99478 3.51224,3.56019 2.70726,5.99931 -0.37714,1.14273 -2.1308,2.78638 -3.20133,3.00049 l -0.78336,0.15667 v 3.53219 3.53218 l 0.85989,-0.14953 c 0.47294,-0.0823 1.46078,-0.31369 2.19519,-0.51431 z"
         id="path1184" />
      <path
         style="fill:#000000;stroke-width:0.264583"
         d="m 98.990445,171.01258 c -0.298371,-0.61846 -1.437788,-3.26105 -2.532039,-5.87242 -1.09425,-2.61137 -2.140672,-4.88942 -2.32538,-5.06233 -0.184708,-0.17291 -1.645521,-0.84759 -3.24625,-1.49929 -1.600729,-0.6517 -3.530166,-1.46089 -4.287636,-1.7982 l -1.377217,-0.61329 -5.243912,3.48709 c -2.884151,1.9179 -5.359484,3.48709 -5.500737,3.48709 -0.439518,0 -21.558204,-21.27235 -21.558204,-21.71506 0,-0.23021 1.547812,-2.69472 3.439583,-5.47668 1.891771,-2.78197 3.439583,-5.1574 3.439583,-5.27874 0,-0.12133 -0.519302,-1.40785 -1.154005,-2.85892 -0.634704,-1.45107 -1.363107,-3.29315 -1.618674,-4.09351 -0.255567,-0.80037 -0.599467,-1.59275 -0.764223,-1.76086 -0.164756,-0.16811 -2.38315,-1.16342 -4.929764,-2.21182 -2.546614,-1.0484 -5.255286,-2.19942 -6.019271,-2.55784 l -1.389062,-0.65166 V 104.40373 92.271328 l 1.389062,-0.651663 c 0.763985,-0.358415 3.472657,-1.511401 6.019271,-2.562188 2.546614,-1.05079 4.759767,-2.014929 4.918115,-2.142535 0.15835,-0.127603 0.435223,-0.739436 0.615274,-1.359627 0.180052,-0.620194 0.92463,-2.531311 1.654618,-4.24693 0.729988,-1.715619 1.263404,-3.285691 1.185369,-3.489047 -0.07803,-0.203356 -1.583867,-2.52788 -3.346293,-5.165603 C 54.596227,70.016011 53.08402,67.674874 52.998194,67.451214 52.811596,66.96495 73.9668,45.666236 74.636384,45.666236 c 0.231444,0 2.721088,1.562512 5.532543,3.472249 l 5.111734,3.472248 1.877015,-0.848394 c 1.032359,-0.466617 2.94858,-1.265176 4.258267,-1.774576 1.309687,-0.509399 2.532375,-1.071605 2.717083,-1.249345 0.184708,-0.177741 1.23113,-2.459741 2.32538,-5.071111 1.094251,-2.61137 2.233668,-5.253961 2.532039,-5.872425 l 0.542494,-1.124479 h 12.128081 12.12809 l 0.76904,1.653646 c 0.42298,0.909505 1.58948,3.587621 2.59223,5.951368 l 1.82319,4.297723 1.72639,0.56204 c 0.94952,0.309122 3.1091,1.15583 4.79907,1.881573 l 3.07268,1.319532 4.81536,-3.217438 c 2.64845,-1.769591 4.99836,-3.287661 5.22202,-3.373487 0.4864,-0.18665 21.78497,20.968704 21.78497,21.638483 0,0.231606 -1.42875,2.523906 -3.175,5.093999 -1.74625,2.570096 -3.175,4.780314 -3.175,4.911595 0,0.131281 0.45642,1.232813 1.01427,2.447848 0.55785,1.215036 1.40704,3.308983 1.8871,4.653214 0.48005,1.344232 1.0059,2.55188 1.16854,2.683663 0.16265,0.131781 2.14119,1.036905 4.39676,2.011381 2.25557,0.974477 4.72612,2.067428 5.4901,2.42878 l 1.38907,0.657005 v 12.132402 12.13241 l -1.50524,0.71209 c -0.82789,0.39165 -3.29377,1.47812 -5.47975,2.41437 -2.18598,0.93625 -4.11224,1.81658 -4.28058,1.95629 -0.16834,0.13971 -0.69885,1.35385 -1.1789,2.69808 -0.48006,1.34423 -1.32925,3.43818 -1.8871,4.65321 -0.55785,1.21504 -1.01414,2.34613 -1.01399,2.51354 1.6e-4,0.16741 1.42878,2.44751 3.17472,5.06689 1.74595,2.61937 3.17457,4.88101 3.17473,5.02587 5.3e-4,0.42839 -21.25931,21.56444 -21.69433,21.56809 -0.21896,0.002 -2.61105,-1.49399 -5.31577,-3.32407 l -4.91766,-3.32743 -2.62929,1.16576 c -1.44611,0.64118 -3.5887,1.48528 -4.7613,1.87579 l -2.13201,0.71003 -1.80564,4.29256 c -0.99311,2.36091 -2.15283,5.0367 -2.57716,5.94621 l -0.77152,1.65364 H 111.66102 99.532939 Z m 9.236365,-21.76413 c 0.64944,-0.22842 1.62473,-0.70832 2.16731,-1.06647 0.54259,-0.35814 1.11069,-0.65117 1.26245,-0.65117 0.15176,0 0.71986,0.29303 1.26244,0.65117 1.81892,1.20061 3.17525,1.54856 6.0136,1.54272 2.13695,-0.004 3.06385,-0.14122 4.81925,-0.71134 2.74818,-0.89255 5.64848,-2.81293 7.67894,-5.08446 l 1.54764,-1.73138 2.18374,-0.37896 c 8.93769,-1.55101 15.38814,-9.24098 15.38814,-18.34512 v -2.54149 l 2.06821,-2.11255 c 2.30498,-2.3544 3.74185,-4.69362 4.76473,-7.75699 0.59326,-1.77675 0.67724,-2.47172 0.67671,-5.60034 -5.3e-4,-3.16201 -0.0815,-3.81476 -0.70565,-5.688545 -0.99974,-3.001372 -2.39051,-5.238025 -4.75348,-7.64463 l -2.05052,-2.08838 v -2.565651 c 0,-5.1279 -1.78183,-9.441484 -5.41858,-13.117718 -1.74436,-1.763297 -2.56942,-2.36532 -4.63559,-3.382468 -1.38245,-0.680556 -3.40339,-1.452358 -4.49098,-1.715116 l -1.97744,-0.477737 -0.91258,-1.569776 c -2.87398,-4.943672 -8.56565,-8.182561 -14.31483,-8.145963 -2.69093,0.01713 -4.11805,0.395524 -5.88131,1.559398 -1.21831,0.804169 -1.30658,0.804169 -2.52489,0 -1.81891,-1.200612 -3.17524,-1.548562 -6.01359,-1.542714 -2.13042,0.0044 -3.0649,0.141594 -4.797037,0.704317 -3.899231,1.26675 -7.426942,4.081127 -9.445379,7.535434 -0.847622,1.450604 -0.864494,1.462151 -2.830147,1.937041 -1.087591,0.262758 -3.108534,1.03456 -4.490982,1.715116 -2.066173,1.017148 -2.891232,1.619171 -4.63559,3.382468 -3.64015,3.679671 -5.418576,7.947681 -5.418576,13.003931 v 2.679438 l -2.050521,2.08838 c -2.362976,2.406605 -3.753744,4.643258 -4.753488,7.64463 -0.624148,1.873785 -0.705121,2.526535 -0.70565,5.688545 -5.29e-4,3.12862 0.08345,3.82359 0.676718,5.60034 1.022877,3.06337 2.459741,5.40259 4.76473,7.75699 l 2.068211,2.11255 v 2.65527 c 0,8.98883 6.497354,16.68847 15.383938,18.23062 l 2.18794,0.37968 1.547635,1.73138 c 2.655432,2.9707 6.3027,5.0213 10.184998,5.72628 1.67906,0.3049 4.70408,0.10515 6.15948,-0.40673 z m -5.6333,-7.03197 c -2.822211,-0.66514 -5.45727,-2.95259 -6.863846,-5.95837 l -0.811246,-1.7336 -2.167142,0.18052 c -3.823887,0.31853 -6.913813,-0.85039 -9.547925,-3.61198 -3.147055,-3.29936 -3.977494,-7.58321 -2.359197,-12.16995 0.61177,-1.73395 0.540319,-1.86729 -1.603849,-2.99306 -2.004549,-1.05247 -4.194905,-3.00001 -5.156617,-4.58497 -2.115545,-3.48654 -2.068526,-8.47886 0.112395,-11.933659 0.933246,-1.478354 3.332808,-3.54615 5.288901,-4.557649 1.89285,-0.978794 1.96568,-1.133697 1.351481,-2.87452 -1.595427,-4.52192 -0.777539,-8.828725 2.293223,-12.075604 2.475579,-2.61756 4.541369,-3.503472 8.77961,-3.765137 l 2.874605,-0.177475 0.574077,-1.993133 c 0.674619,-2.342202 1.299954,-3.42397 2.854929,-4.938751 2.171891,-2.115746 6.054911,-3.276153 7.852421,-2.346627 0.46867,0.242364 1.08455,0.821833 1.36861,1.287711 0.50549,0.82903 0.51648,1.604174 0.51648,36.433504 0,34.82934 -0.011,35.60448 -0.51648,36.43351 -0.92078,1.51014 -2.44375,1.94409 -4.84043,1.37924 z m -3.431038,-27.91584 -0.07361,-3.59684 -1.017272,-0.34935 c -1.958144,-0.67248 -3.144827,-2.31891 -3.144827,-4.36322 0,-2.05478 1.297556,-3.75734 3.368349,-4.41969 l 0.79375,-0.25389 0.07361,-3.616331 0.07361,-3.616335 h -0.773348 c -1.186556,0 -3.997552,0.951264 -5.353666,1.811726 -1.850395,1.174086 -3.342309,2.876259 -4.410128,5.03166 -0.854641,1.7251 -0.97763,2.22903 -1.072298,4.39355 -0.157149,3.59306 0.737754,6.27787 2.921614,8.76514 1.757505,2.00169 5.274421,3.76885 7.55588,3.79664 l 1.131946,0.0138 z m 17.864748,27.70234 c -1.78667,-1.12674 -1.66659,1.58796 -1.6655,-37.65225 10e-4,-34.775851 0.012,-35.551514 0.51747,-36.380504 0.28406,-0.465878 0.89994,-1.045347 1.36862,-1.287711 1.79751,-0.929526 5.68053,0.230881 7.85242,2.346627 1.55497,1.514781 2.1803,2.596549 2.85492,4.938751 l 0.57408,1.993133 2.87461,0.177475 c 4.23824,0.261665 6.30403,1.147577 8.77961,3.765137 3.07716,3.253647 3.88924,7.552004 2.28553,12.097397 -0.60654,1.719112 -0.53118,1.875221 1.38296,2.865065 2.64191,1.366181 4.83215,3.547326 5.91309,5.88853 1.55871,3.37603 1.35111,7.48106 -0.53558,10.59044 -0.96172,1.58496 -3.15207,3.5325 -5.15662,4.58497 -2.14852,1.12805 -2.21653,1.25652 -1.59616,3.01485 1.61,4.56324 0.77371,8.85557 -2.36689,12.14816 -2.63411,2.76159 -5.72403,3.93051 -9.54792,3.61198 l -2.16714,-0.18052 -0.81561,1.74291 c -1.63014,3.48353 -4.70496,5.79244 -8.15217,6.12152 -1.27131,0.12136 -1.70616,0.0514 -2.39972,-0.38596 z m 11.2981,-24.8667 c 3.23097,-1.26403 5.89936,-4.15532 6.91208,-7.48948 0.44674,-1.47079 0.53642,-2.32829 0.45003,-4.30331 -0.0957,-2.18877 -0.21658,-2.68595 -1.07324,-4.41512 -1.06782,-2.155401 -2.55973,-3.857574 -4.41013,-5.03166 -1.35261,-0.858242 -4.16624,-1.811726 -5.3462,-1.811726 h -0.76588 v 3.578423 3.578423 l 0.72761,0.25853 c 1.34252,0.47702 2.04572,0.99158 2.80865,2.05523 1.71769,2.39473 0.52236,5.79982 -2.38669,6.79886 l -1.01728,0.34935 -0.0738,3.63024 -0.0738,3.63024 1.39674,-0.12935 c 0.76821,-0.0711 2.05159,-0.38554 2.85196,-0.69865 z"
         id="path1182" />
      <path
         style="fill:#000000;stroke-width:0.264583"
         d="m 97.118055,166.25008 c -1.346658,-3.23783 -2.644756,-6.07702 -2.884665,-6.30931 -0.239908,-0.23228 -1.210103,-0.69451 -2.155989,-1.02716 -0.945885,-0.33265 -2.866826,-1.13558 -4.268758,-1.78429 l -2.548969,-1.17947 -5.185159,3.4634 c -2.851837,1.90487 -5.338188,3.4634 -5.525222,3.4634 -0.187036,0 -5.14475,-4.8101 -11.017144,-10.68912 -7.562988,-7.57151 -10.615495,-10.7933 -10.465929,-11.04635 0.116132,-0.19648 1.7521,-2.63345 3.635484,-5.41549 l 3.424335,-5.05826 -1.180495,-2.61466 c -0.649273,-1.43806 -1.447899,-3.42071 -1.774726,-4.40587 -0.698827,-2.10649 -0.08539,-1.71824 -7.625185,-4.82607 l -5.622396,-2.31749 V 104.40373 92.304129 l 5.622396,-2.317496 c 7.541378,-3.108478 6.92688,-2.719385 7.621864,-4.826069 0.325001,-0.985162 1.041122,-2.771185 1.591382,-3.968935 0.550259,-1.19775 1.076395,-2.416942 1.16919,-2.709314 0.12633,-0.398032 -0.699702,-1.825305 -3.287848,-5.680967 -1.901113,-2.83216 -3.456568,-5.305885 -3.456568,-5.497168 0,-0.191281 4.810101,-5.152471 10.689113,-11.024865 7.549393,-7.540894 10.794045,-10.615595 11.046354,-10.467756 0.196482,0.115128 2.548877,1.697185 5.227539,3.515681 2.678666,1.818496 5.011981,3.306357 5.185148,3.306357 0.173165,0 1.672468,-0.602466 3.331784,-1.338813 1.659313,-0.736347 3.521033,-1.488837 4.137152,-1.672201 0.616122,-0.183363 1.286939,-0.523475 1.490707,-0.755805 0.203772,-0.232329 1.474023,-3.071558 2.822784,-6.309396 l 2.452291,-5.886979 h 12.088405 12.0884 l 2.45774,5.817033 c 1.35176,3.199369 2.59729,5.932844 2.76784,6.07439 0.17055,0.141546 1.37544,0.631585 2.67752,1.088976 1.30209,0.45739 3.2604,1.244252 4.3518,1.748582 1.09141,0.50433 2.16297,0.931406 2.38125,0.949058 0.21828,0.01765 2.56737,-1.419091 5.2202,-3.192764 2.65282,-1.773672 4.97652,-3.224859 5.16377,-3.224859 0.18725,0 5.14514,4.810101 11.01753,10.689113 7.5515,7.560008 10.61555,10.79369 10.46689,11.046354 -0.11561,0.196482 -1.63885,2.465086 -3.38498,5.041342 l -3.17477,4.684101 1.21134,2.59194 c 0.66624,1.425567 1.53637,3.54444 1.93362,4.708607 0.39726,1.164166 0.92485,2.298615 1.17242,2.520994 0.24758,0.22238 2.76152,1.39827 5.58654,2.613092 2.82502,1.214818 5.28523,2.32737 5.46713,2.472337 0.48125,0.38354 0.48125,23.829081 0,24.204461 -0.1819,0.14188 -2.63707,1.25035 -5.45592,2.46326 -2.81885,1.21291 -5.3328,2.39132 -5.58654,2.6187 -0.25374,0.22737 -0.78581,1.3659 -1.18238,2.53007 -0.39656,1.16417 -1.24613,3.23394 -1.88794,4.59949 -0.6418,1.36555 -1.16691,2.58834 -1.16691,2.7173 0,0.12897 1.42875,2.37282 3.175,4.98633 1.74625,2.61352 3.175,4.90506 3.175,5.0923 0,0.18726 -4.8144,5.14944 -10.69866,11.02708 l -10.69867,10.68662 -0.74456,-0.48419 c -0.40951,-0.26631 -2.63916,-1.77328 -4.95478,-3.34883 -2.31561,-1.57556 -4.41221,-2.86464 -4.65909,-2.86464 -0.24689,0 -1.32885,0.40536 -2.40437,0.90081 -1.07552,0.49545 -3.06594,1.28746 -4.42316,1.76004 -1.55868,0.54272 -2.59831,1.06369 -2.82232,1.41429 -0.19507,0.30529 -1.33081,2.87678 -2.52387,5.71444 -1.19306,2.83766 -2.28908,5.3082 -2.43559,5.4901 -0.20602,0.25578 -2.978,0.33073 -12.23214,0.33073 H 99.566525 Z m 12.506945,-17.47953 2.03157,-1.00406 2.02084,0.99875 c 1.83166,0.90526 2.26022,1.00837 4.57799,1.10147 3.12367,0.12546 5.07684,-0.31381 8.19765,-1.84367 1.80502,-0.88485 2.66186,-1.53232 4.50674,-3.40552 2.16595,-2.19921 2.34855,-2.32266 3.71317,-2.51034 5.37739,-0.73958 10.57618,-4.20538 13.46046,-8.97349 1.61445,-2.66892 2.47617,-5.69507 2.62367,-9.21367 l 0.13018,-3.10559 2.04879,-2.0793 c 1.62373,-1.6479 2.30234,-2.59549 3.27083,-4.56733 1.64394,-3.34702 2.11854,-5.2973 2.11854,-8.70573 0,-3.4019 -0.47467,-5.35875 -2.10519,-8.67886 -0.95834,-1.951382 -1.63565,-2.893298 -3.27002,-4.547558 l -2.06132,-2.086412 -0.13432,-3.125358 c -0.22624,-5.264023 -2.01219,-9.360664 -5.63036,-12.914939 -2.79731,-2.74792 -5.93406,-4.36663 -10.20965,-5.268658 -0.48813,-0.102982 -0.97971,-0.624711 -1.69951,-1.803742 -1.54435,-2.529662 -4.25116,-5.021974 -6.82305,-6.282359 -3.0601,-1.499646 -5.02818,-1.938276 -8.13661,-1.813425 -2.31777,0.09309 -2.74633,0.196207 -4.57799,1.101462 l -2.02084,0.998753 -2.02084,-0.998753 c -1.83166,-0.905255 -2.26023,-1.008368 -4.57799,-1.101462 -6.511144,-0.261522 -11.9059,2.932961 -15.758464,9.331304 -0.156591,0.260067 -1.020527,0.606586 -2.116666,0.848982 -3.714477,0.821404 -7.749955,3.276094 -10.173557,6.188347 -2.923254,3.512645 -4.247845,6.999208 -4.450495,11.71449 l -0.134321,3.125358 -2.061325,2.086412 c -1.634371,1.65426 -2.311676,2.596176 -3.270013,4.547558 -1.63053,3.32011 -2.105193,5.27696 -2.105193,8.67886 0,3.41182 0.474567,5.3587 2.125526,8.71981 0.986803,2.00899 1.631223,2.90431 3.269821,4.54291 l 2.040803,2.0408 0.140343,3.13001 c 0.105381,2.35021 0.310499,3.65873 0.82332,5.25225 2.193493,6.81598 8.298253,12.00285 15.252659,12.95933 1.362065,0.18733 1.550231,0.31386 3.692977,2.48318 1.801792,1.82414 2.712001,2.51236 4.506746,3.40759 3.169959,1.58119 4.631099,1.91943 7.956459,1.84188 2.64199,-0.0616 2.90972,-0.1209 4.82864,-1.06928 z m -7.7327,-6.93012 c -2.633089,-0.82094 -4.878549,-3.03692 -6.231515,-6.14972 -0.268814,-0.61846 -0.619498,-1.13566 -0.779295,-1.14933 -0.159801,-0.0137 -1.36211,-0.007 -2.671797,0.0159 -2.976533,0.0509 -5.338347,-0.62736 -7.289458,-2.09339 -4.292582,-3.22539 -5.704377,-8.0226 -3.962824,-13.46549 0.295162,-0.92247 0.536657,-1.76747 0.536657,-1.87777 0,-0.11031 -0.975783,-0.72478 -2.168411,-1.36549 -2.6574,-1.42764 -4.413461,-3.1348 -5.476766,-5.32428 -1.570365,-3.23358 -1.570365,-6.70398 0,-9.93756 1.07333,-2.210119 2.874732,-3.953233 5.493316,-5.315573 1.183524,-0.615735 2.151861,-1.220015 2.151861,-1.342839 0,-0.122825 -0.265951,-1.039532 -0.591005,-2.037125 -0.440732,-1.352614 -0.5921,-2.452926 -0.595312,-4.32735 -0.004,-2.346071 0.05913,-2.645757 0.947769,-4.497917 1.386433,-2.889689 3.579151,-4.943308 6.420339,-6.013053 0.613839,-0.231119 2.425549,-0.482645 4.126598,-0.57291 l 3.032347,-0.160912 0.564282,-1.852083 c 0.77035,-2.528437 1.531887,-3.933243 2.79858,-5.162526 1.566923,-1.520647 3.593164,-2.424374 5.787744,-2.581394 1.81542,-0.129894 1.84249,-0.122036 2.76788,0.803352 l 0.93453,0.934535 V 104.40375 140.44 l -0.89959,0.89958 c -0.80598,0.80599 -1.04686,0.89775 -2.3151,0.88189 -0.77854,-0.01 -1.93991,-0.18119 -2.58083,-0.38102 z m -2.567165,-24.09688 c 0.228116,-0.59446 0.191981,-6.53355 -0.04189,-6.88533 -0.106913,-0.16081 -0.633016,-0.43535 -1.16912,-0.61007 -1.257935,-0.40998 -2.780085,-2.09748 -3.013299,-3.34061 -0.383437,-2.04389 1.209595,-4.68656 3.046584,-5.05395 0.455372,-0.0911 0.942784,-0.38016 1.083138,-0.64241 0.140351,-0.26226 0.255185,-1.898824 0.255185,-3.636821 0,-3.771662 -0.06562,-3.878347 -2.143172,-3.484348 -2.144221,0.406643 -4.567775,1.658003 -6.198994,3.200743 -6.6812,6.318796 -4.208793,17.256536 4.577595,20.250956 2.11858,0.72202 3.377311,0.79251 3.603972,0.20184 z m 17.234705,23.63096 -0.93452,-0.93453 V 104.40373 68.367485 l 0.93452,-0.934527 c 0.92539,-0.925388 0.95246,-0.933246 2.76789,-0.803352 2.19457,0.15702 4.22081,1.060747 5.78774,2.581394 1.26669,1.229283 2.02823,2.634089 2.79858,5.162526 l 0.56428,1.852083 3.03235,0.160912 c 1.70105,0.09027 3.51276,0.341791 4.12659,0.57291 2.84119,1.069745 5.03391,3.123364 6.42034,6.013053 0.88865,1.85216 0.95179,2.151846 0.94777,4.497916 -0.003,1.874425 -0.15458,2.974737 -0.59531,4.327351 -0.32505,0.997593 -0.591,1.902121 -0.591,2.010063 0,0.107942 0.97578,0.720479 2.16841,1.361191 2.65328,1.425427 4.4097,3.131063 5.48281,5.324285 2.73473,5.58925 0.52091,12.06353 -5.16131,15.09418 -1.00565,0.53637 -1.98578,1.07947 -2.17806,1.20688 -0.28275,0.18735 -0.21316,0.73242 0.36385,2.85021 0.89353,3.27953 0.80735,5.57472 -0.30217,8.04705 -2.09236,4.66242 -5.8985,6.96992 -11.28411,6.84108 -1.41691,-0.0339 -2.62334,-0.0104 -2.68096,0.0521 -0.0576,0.0626 -0.5385,0.98004 -1.06862,2.03885 -1.71413,3.42365 -4.36884,5.30649 -7.83118,5.55422 -1.81543,0.12989 -1.8425,0.12204 -2.76789,-0.80335 z m 10.78509,-23.74406 c 4.86999,-1.50419 8.2204,-5.73956 8.57935,-10.84547 0.30173,-4.29198 -1.71073,-8.344026 -5.40719,-10.887257 -1.92823,-1.326658 -5.62548,-2.366576 -6.33131,-1.780794 -0.42883,0.355902 -0.51564,6.323581 -0.10319,7.094251 0.14035,0.26225 0.62776,0.55133 1.08313,0.64241 1.83699,0.36739 3.43002,3.01006 3.04659,5.05395 -0.23322,1.24313 -1.75537,2.93063 -3.0133,3.34061 -0.53611,0.17472 -1.06221,0.44926 -1.16912,0.61007 -0.23387,0.35178 -0.27001,6.29087 -0.0419,6.88533 0.21717,0.56595 1.27366,0.53035 3.35693,-0.1131 z"
         id="path1180" />
      <path
         style="fill:#000000;stroke-width:0.264583"
         d="m 99.337869,171.14757 c -0.231992,-0.54719 -1.315402,-3.13801 -2.407576,-5.75738 -1.092176,-2.61938 -2.145022,-5.01154 -2.339654,-5.31593 -0.210061,-0.3285 -1.193652,-0.85155 -2.4202,-1.28698 -1.136475,-0.40346 -3.067732,-1.19621 -4.291679,-1.76168 -1.223949,-0.56547 -2.389526,-1.02812 -2.59017,-1.02812 -0.200647,0 -2.700935,1.5604 -5.556199,3.46756 L 74.540999,162.9326 63.862327,152.25637 C 57.989056,146.38444 53.183653,141.4872 53.183653,141.3736 c 0,-0.1136 1.547813,-2.48518 3.439583,-5.27018 1.891771,-2.78501 3.439584,-5.28814 3.439584,-5.56252 0,-0.27437 -0.20029,-0.8799 -0.445089,-1.34562 -0.244799,-0.46572 -1.053387,-2.37881 -1.796863,-4.25131 l -1.351773,-3.40455 -6.206783,-2.58816 -6.206783,-2.58816 V 104.40373 92.444368 l 6.19963,-2.58518 6.199629,-2.58518 1.497137,-3.672115 c 0.823426,-2.019665 1.691791,-4.107664 1.929702,-4.639997 l 0.432564,-0.967878 -3.597106,-5.349065 -3.597107,-5.349068 10.680091,-10.682532 c 5.874051,-5.875394 10.777987,-10.682534 10.897637,-10.682534 0.119647,0 2.400948,1.487718 5.069554,3.306041 2.668603,1.818322 5.040635,3.378422 5.271177,3.46689 0.232251,0.08912 1.747644,-0.425719 3.398337,-1.154555 1.638544,-0.723472 3.595085,-1.516192 4.347869,-1.761599 0.752785,-0.245407 1.495843,-0.599392 1.651238,-0.786633 0.155398,-0.187242 1.401884,-3.008451 2.769973,-6.269354 l 2.487433,-5.928914 h 11.960443 11.96044 l 2.45187,5.775384 c 1.34852,3.176461 2.61689,5.930537 2.81859,6.120167 0.2017,0.18963 1.20017,0.613595 2.21881,0.942144 1.01865,0.328548 3.03932,1.116582 4.49039,1.751186 1.45107,0.634604 2.78068,1.153826 2.95469,1.153826 0.17401,0 2.54557,-1.500801 5.27015,-3.335113 l 4.95378,-3.335113 10.67851,10.676075 c 5.87319,5.871842 10.67852,10.77063 10.67852,10.886197 0,0.115567 -1.42875,2.308799 -3.175,4.873847 -1.74625,2.565048 -3.175,4.865409 -3.175,5.111914 0,0.246504 0.47084,1.467326 1.04632,2.712937 0.57547,1.245608 1.42755,3.356482 1.8935,4.690832 0.46595,1.334346 1.0369,2.542751 1.26879,2.685343 0.23188,0.142592 2.86238,1.315905 5.84556,2.607363 l 5.42396,2.348105 v 11.935941 11.93595 l -5.42396,2.3481 c -2.98318,1.29146 -5.61368,2.46477 -5.84556,2.60736 -0.23189,0.1426 -0.80833,1.36672 -1.28099,2.72027 -0.47266,1.35356 -1.38729,3.59072 -2.03253,4.97148 l -1.17314,2.51046 3.34045,5.01253 3.34045,5.01253 -10.67468,10.67712 c -5.87107,5.87241 -10.76462,10.67712 -10.87456,10.67712 -0.10993,0 -2.39066,-1.48828 -5.06828,-3.30729 -2.67762,-1.81902 -4.97286,-3.3073 -5.10054,-3.3073 -0.12767,0 -1.41937,0.51922 -2.87044,1.15383 -1.45107,0.6346 -3.47174,1.42264 -4.49039,1.75119 -1.01864,0.32855 -2.01711,0.75251 -2.21881,0.94214 -0.2017,0.18963 -1.47005,2.94371 -2.81854,6.12017 l -2.45182,5.77538 -11.9273,0.0688 -11.927299,0.0688 z m 9.143701,-21.64886 c 0.65484,-0.26157 1.63711,-0.75332 2.18281,-1.09277 l 0.99219,-0.61718 0.99218,0.61718 c 3.73037,2.32044 8.56193,2.30505 13.42761,-0.0428 2.41556,-1.16557 4.62017,-2.8898 5.92987,-4.63778 0.78089,-1.04221 1.06174,-1.22301 2.11549,-1.36189 4.74457,-0.62532 9.60578,-3.2888 12.47543,-6.83535 2.82116,-3.48664 4.19278,-7.22681 4.34315,-11.84305 l 0.0916,-2.81134 1.83343,-1.83343 c 2.14098,-2.14098 3.7086,-4.66099 4.74336,-7.62514 0.67753,-1.94085 0.73891,-2.43534 0.73891,-5.95312 0,-3.51779 -0.0614,-4.01228 -0.73891,-5.953128 -1.03476,-2.964149 -2.60238,-5.484156 -4.74336,-7.625138 l -1.83343,-1.833428 -0.0916,-2.81134 c -0.19145,-5.877364 -2.526,-10.724049 -6.93621,-14.400003 -1.90985,-1.591879 -5.16107,-3.215553 -7.72324,-3.857022 l -1.96634,-0.492297 -1.17159,-1.805757 c -2.25665,-3.478136 -5.25715,-5.799992 -9.29002,-7.188825 -1.64422,-0.566233 -2.5153,-0.695783 -4.788,-0.712089 -2.95962,-0.02124 -4.37229,0.333766 -6.41152,1.61119 l -0.98756,0.618635 -1.27959,-0.78734 c -2.90647,-1.788366 -6.99264,-2.033315 -11.072499,-0.663752 -3.884805,1.304087 -6.884828,3.640902 -9.143515,7.122181 l -1.171591,1.805757 -1.966341,0.492297 c -2.562172,0.641469 -5.813393,2.265143 -7.72324,3.857022 -4.412834,3.678145 -6.765334,8.558133 -6.941433,14.399193 l -0.08473,2.810534 -1.834234,1.834234 c -2.141744,2.141744 -3.709301,4.661493 -4.744167,7.625948 -0.679012,1.945078 -0.738475,2.427668 -0.733532,5.953128 0.0048,3.42912 0.07891,4.05496 0.697882,5.8944 0.961948,2.85866 2.6208,5.52565 4.779817,7.68467 l 1.834234,1.83423 0.0842,2.81054 c 0.09565,3.19269 0.555863,5.17325 1.821193,7.83761 2.777207,5.84788 8.500348,9.98293 15.003144,10.83998 1.055667,0.13914 1.333328,0.31859 2.116667,1.368 1.946045,2.60705 6.201381,5.23874 9.784205,6.05099 2.18077,0.49439 5.78794,0.35586 7.38928,-0.28378 z m -5.5214,-7.53669 c -2.985203,-0.6073 -5.385209,-2.61127 -6.896697,-5.75866 l -0.908719,-1.89223 -2.927739,0.029 c -3.259224,0.0323 -4.804873,-0.38488 -7.128724,-1.92414 -4.017965,-2.66139 -5.617532,-7.84062 -4.05172,-13.11907 0.750056,-2.52848 0.831516,-2.36815 -1.933752,-3.80618 -4.503875,-2.34217 -6.967548,-7.05094 -6.158952,-11.77149 0.632531,-3.69269 2.813761,-6.554013 6.423535,-8.426339 1.091406,-0.566095 2.056971,-1.138767 2.145699,-1.272604 0.08873,-0.133839 -0.12719,-1.215842 -0.479819,-2.404448 -0.882563,-2.974859 -0.778933,-6.209263 0.272097,-8.492617 1.35495,-2.943614 3.388371,-4.818126 6.500834,-5.992799 1.12695,-0.425323 2.150147,-0.569396 4.261188,-0.599998 l 2.778125,-0.04027 0.800404,-2.413474 c 0.440222,-1.327409 1.154597,-2.925148 1.5875,-3.550528 1.556306,-2.24827 4.4022,-3.747979 7.18873,-3.788256 1.25053,-0.01807 1.50739,0.07666 2.26685,0.836128 l 0.85652,0.856514 v 35.973151 35.97316 l -0.79375,0.78102 c -0.91042,0.89583 -2.10682,1.14888 -3.80161,0.80411 z m -3.533639,-27.54746 0.07309,-3.87979 -0.999131,-0.32412 c -2.155155,-0.69913 -3.248088,-2.11452 -3.248088,-4.2064 0,-1.89061 1.137645,-3.40621 3.054458,-4.06923 l 1.046584,-0.36201 0.07322,-3.876303 0.07322,-3.876307 H 98.45805 c -2.608414,0 -5.997723,1.691391 -8.14148,4.062902 -5.396693,5.970038 -3.533315,15.524618 3.725219,19.101288 1.828406,0.90095 3.71992,1.43551 4.782489,1.35157 0.499578,-0.0395 0.533254,-0.25873 0.602255,-3.9216 z m 18.418049,27.64537 c -0.30738,-0.0619 -0.90269,-0.47149 -1.32292,-0.91011 l -0.76405,-0.7975 V 104.39145 68.430577 l 0.85651,-0.856514 c 0.75947,-0.759465 1.01632,-0.854205 2.26685,-0.836128 2.78653,0.04028 5.63243,1.539986 7.18873,3.788256 0.43291,0.62538 1.14728,2.223119 1.5875,3.550528 l 0.80041,2.413474 2.77812,0.04027 c 3.08984,0.04479 4.78714,0.525753 6.97911,1.977657 4.01412,2.658838 5.6174,7.841414 4.05501,13.107757 -0.35263,1.188606 -0.56855,2.270609 -0.47982,2.404448 0.0887,0.133837 1.0543,0.706509 2.1457,1.272604 3.60978,1.872326 5.79101,4.733651 6.42354,8.426341 0.80859,4.72055 -1.65508,9.42932 -6.15895,11.77149 -2.76527,1.43803 -2.68381,1.2777 -1.93376,3.80618 0.88601,2.98678 0.7839,6.21693 -0.26881,8.50393 -1.3527,2.93875 -3.37294,4.80355 -6.50083,6.00069 -1.21736,0.46592 -2.00659,0.56242 -4.40521,0.53866 l -2.92215,-0.0289 -0.8658,1.75575 c -1.12531,2.28201 -1.9832,3.38373 -3.38684,4.34946 -1.78124,1.22553 -4.49778,1.96074 -6.07234,1.64344 z m 10.21615,-24.50053 c 5.39766,-1.97931 8.8197,-7.7097 7.94049,-13.29677 -0.73589,-4.676414 -4.05316,-8.558902 -8.49372,-9.940961 -0.88582,-0.275698 -2.07941,-0.501269 -2.65241,-0.501269 h -1.04184 l 0.0732,3.876307 0.0732,3.876303 1.04658,0.36201 c 1.91682,0.66302 3.05446,2.17862 3.05446,4.06923 0,2.08936 -1.09324,3.50741 -3.24114,4.20411 l -0.99219,0.32183 v 3.77184 c 0,2.07451 0.0831,3.85497 0.18474,3.95658 0.27418,0.27418 2.39112,-0.0914 4.04859,-0.69921 z"
         id="path1178" />
      <path
         style="fill:#000000;stroke-width:0.264583"
         d="m 99.730074,172.07361 c -0.01114,-0.0379 -0.05817,-0.24743 -0.104531,-0.46571 -0.237324,-1.11744 -4.957318,-11.81958 -5.334955,-12.0965 -0.241922,-0.1774 -1.047213,-0.5214 -1.789541,-0.76445 -0.742328,-0.24304 -2.691712,-1.03676 -4.331962,-1.76381 l -2.982277,-1.32191 -5.226354,3.47542 c -2.874494,1.91148 -5.361628,3.47541 -5.526963,3.47541 -0.560425,0 -21.022082,-20.99726 -20.90351,-21.45068 0.06111,-0.2337 1.615536,-2.63503 3.45427,-5.33629 1.838733,-2.70125 3.343152,-5.0105 3.343152,-5.13166 0,-0.12116 -0.522895,-1.4127 -1.16199,-2.8701 -0.639094,-1.45739 -1.476599,-3.49641 -1.861122,-4.53116 l -0.699133,-1.88135 -6.010231,-2.48239 c -3.305627,-1.36532 -6.129294,-2.48324 -6.274815,-2.48427 -0.172485,-10e-4 -0.264583,-4.19238 -0.264583,-12.04043 0,-7.855949 0.092,-12.038538 0.264802,-12.038538 0.145642,0 2.971323,-1.123196 6.279291,-2.495989 l 6.014489,-2.495987 0.694656,-1.869638 c 0.382061,-1.0283 1.217552,-3.062049 1.856646,-4.519443 0.639095,-1.457396 1.16199,-2.774418 1.16199,-2.92672 0,-0.152299 -1.547813,-2.588524 -3.439583,-5.41383 -1.891771,-2.825308 -3.439583,-5.277911 -3.439583,-5.450231 0,-0.172321 4.730797,-4.973962 10.512883,-10.670317 7.161052,-7.054874 10.652324,-10.320543 10.950232,-10.242638 0.240543,0.0629 2.660779,1.62936 5.378304,3.481015 l 4.940956,3.366646 2.695792,-1.200818 c 1.482682,-0.66045 3.562977,-1.521194 4.622871,-1.912765 1.192945,-0.440725 2.04094,-0.924694 2.225955,-1.270399 0.484897,-0.906033 4.749925,-11.111332 4.824717,-11.544508 0.05973,-0.34593 1.607383,-0.396875 12.056623,-0.396875 10.44957,0 11.99679,0.05093 12.05588,0.396875 0.12267,0.718239 4.65319,11.238183 4.96726,11.534075 0.16889,0.159106 1.08097,0.556762 2.02686,0.883678 0.94588,0.326917 3.11734,1.187306 4.82546,1.911974 l 3.10568,1.31758 4.80396,-3.228226 c 2.64217,-1.775524 5.00382,-3.280493 5.24812,-3.344377 0.62593,-0.163686 21.26107,20.730517 21.09618,21.36104 -0.0645,0.246668 -1.50189,2.477354 -3.19418,4.95708 -1.69229,2.479727 -3.07689,4.622289 -3.07689,4.761248 0,0.138959 0.43479,1.192154 0.9662,2.340435 0.5314,1.148281 1.45967,3.391217 2.06281,4.984305 l 1.09661,2.896524 5.54396,2.411946 c 3.04918,1.326571 5.66302,2.434148 5.80854,2.461289 0.17174,0.03203 0.26459,4.227378 0.26459,11.955589 0,7.72822 -0.0928,11.92357 -0.26459,11.95559 -0.14552,0.0272 -2.75936,1.13472 -5.80854,2.46129 l -5.54396,2.41195 -1.09661,2.89652 c -0.60314,1.59309 -1.53141,3.83603 -2.06281,4.98431 -0.53141,1.14828 -0.96608,2.21984 -0.96592,2.38125 1.5e-4,0.16141 1.42877,2.43659 3.17472,5.05597 1.74594,2.61937 3.17457,4.89961 3.17472,5.06719 2.6e-4,0.38592 -20.86896,20.99426 -21.26013,20.99426 -0.15934,0 -2.49735,-1.4938 -5.19557,-3.31956 l -4.90585,-3.31956 -2.64148,1.16129 c -1.45282,0.6387 -3.59398,1.49631 -4.75815,1.90579 -1.16417,0.40948 -2.25484,0.87469 -2.42373,1.0338 -0.31411,0.29593 -4.84466,10.81602 -4.96722,11.53408 -0.0588,0.34472 -1.63776,0.40592 -12.01496,0.46571 -6.57097,0.0379 -11.956322,0.0379 -11.967456,0 z m 8.090036,-22.20638 c 0.58208,-0.14696 1.67265,-0.61629 2.42348,-1.04296 l 1.36514,-0.77575 1.80986,0.92875 c 2.2519,1.15559 4.48296,1.53138 7.1125,1.19799 4.28903,-0.5438 7.17602,-2.00024 10.51003,-5.30213 2.14288,-2.12224 2.417,-2.30821 3.61076,-2.4496 5.73843,-0.67963 11.70945,-5.04263 14.42209,-10.53815 1.44535,-2.92815 1.99464,-5.29158 2.00092,-8.60947 l 0.005,-2.42678 1.06499,-0.91159 c 2.67894,-2.29307 5.03486,-6.11141 5.99291,-9.71297 0.62382,-2.3451 0.6157,-7.19321 -0.016,-9.525 -0.97972,-3.616667 -3.34463,-7.459811 -5.97694,-9.712979 l -1.06502,-0.911593 -0.005,-2.426776 c -0.006,-3.324847 -0.55596,-5.682152 -2.01336,-8.634524 -1.03632,-2.099362 -1.62464,-2.892639 -3.64385,-4.913275 -3.0985,-3.100697 -5.76281,-4.534016 -10.27826,-5.529405 -0.52692,-0.116152 -1.01995,-0.624766 -1.79454,-1.851244 -1.27763,-2.022978 -4.12963,-4.783299 -6.10434,-5.9081 -3.08533,-1.757418 -7.26992,-2.635742 -10.32994,-2.168203 -0.94599,0.144537 -2.47116,0.654343 -3.48503,1.164909 l -1.80287,0.907893 -1.769,-0.907413 c -1.01367,-0.519964 -2.48726,-1.01736 -3.45117,-1.164909 -3.05911,-0.468272 -7.243898,0.409901 -10.32994,2.167723 -1.974707,1.124801 -4.826711,3.885122 -6.104336,5.9081 -0.774592,1.226478 -1.267624,1.735092 -1.794542,1.851244 -4.485791,0.988851 -7.1687,2.433905 -10.262118,5.527326 -3.895164,3.895171 -5.677932,8.0866 -5.677932,13.349286 v 2.538415 l -1.731557,1.709082 c -2.729351,2.693921 -4.365258,5.459015 -5.327284,9.004443 -0.633702,2.33543 -0.635792,7.17632 -0.0041,9.525 0.972884,3.61733 3.323319,7.42357 5.997965,9.71297 l 1.06499,0.91159 v 2.5829 c 0,3.24753 0.655084,5.91177 2.170837,8.82881 1.402279,2.69867 4.30947,5.82448 6.933533,7.45494 2.041054,1.26822 5.279816,2.46574 7.323227,2.70775 1.193763,0.14139 1.467887,0.32736 3.610766,2.4496 2.495407,2.47137 4.240056,3.60499 6.94114,4.51012 3.034131,1.01673 5.866111,1.17598 8.606951,0.48398 z m -5.61286,-8.27651 c -1.45828,-0.45575 -3.201959,-1.49512 -4.108205,-2.44882 -0.398878,-0.41977 -1.234911,-1.71031 -1.857851,-2.86788 l -1.13262,-2.10466 -2.302349,0.0942 c -1.26629,0.0518 -2.93057,-0.0519 -3.698396,-0.23053 -4.364598,-1.01525 -7.612332,-4.43687 -8.43489,-8.88649 -0.331366,-1.79252 -0.169293,-3.44951 0.588574,-6.01739 0.293971,-0.99607 0.474358,-1.96774 0.40086,-2.15928 -0.0735,-0.19153 -0.963989,-0.78458 -1.978869,-1.31788 -4.451419,-2.33916 -6.656102,-5.66834 -6.656102,-10.05104 0,-4.62796 2.138945,-7.955124 6.631964,-10.316139 1.028155,-0.540279 1.929508,-1.139036 2.003007,-1.330571 0.0735,-0.191534 -0.136287,-1.22274 -0.466194,-2.291566 -1.555032,-5.038006 -0.182488,-9.85797 3.637841,-12.775007 1.933734,-1.476517 3.774784,-2.046152 7.218286,-2.233398 l 3.017612,-0.164086 0.710327,-2.28146 c 0.824669,-2.648707 1.49538,-3.831664 2.843665,-5.015473 2.03361,-1.78553 5.51869,-2.797096 7.21537,-2.094304 1.68301,0.697124 1.58395,-1.634241 1.58395,37.279194 0,26.92485 -0.0761,35.62176 -0.31609,36.1486 -0.62407,1.36968 -2.56979,1.79218 -4.89989,1.06397 z m -2.617532,-23.58259 c 0.228463,-0.59536 0.191836,-7.06581 -0.04189,-7.40027 -0.106913,-0.153 -0.758653,-0.48978 -1.448313,-0.7484 -1.402765,-0.52605 -2.178042,-1.35549 -2.607839,-2.79003 -0.609343,-2.0338 0.804032,-4.47294 2.922415,-5.04336 0.559478,-0.15066 1.089004,-0.46095 1.176729,-0.68956 0.08772,-0.2286 0.159497,-1.939135 0.159497,-3.801185 0,-4.138446 -0.04787,-4.211619 -2.461475,-3.762764 -8.072251,1.501187 -12.534716,10.247869 -9.019428,17.678579 0.827289,1.74875 2.849782,3.9992 4.608139,5.12753 2.444618,1.56871 6.340361,2.39837 6.712165,1.42946 z m 17.652222,23.6144 c -1.39811,-0.81293 -1.33259,1.00059 -1.34266,-37.16579 -0.0103,-39.002754 -0.10902,-36.660419 1.57457,-37.357784 1.69668,-0.702792 5.18177,0.308774 7.21537,2.094304 1.34829,1.183809 2.019,2.366766 2.84367,5.015473 l 0.71033,2.28146 3.01761,0.164086 c 4.52944,0.246296 6.9591,1.353445 9.20478,4.194442 2.28482,2.890518 2.88462,6.818376 1.65134,10.813963 -0.3299,1.068826 -0.53969,2.100032 -0.46619,2.291566 0.0735,0.191535 0.97485,0.790292 2.00301,1.330571 4.44158,2.333985 6.63196,5.695289 6.63196,10.177249 0,4.48195 -2.19038,7.84326 -6.63196,10.17724 -1.02816,0.54028 -1.92951,1.13904 -2.00301,1.33057 -0.0735,0.19154 0.10689,1.16321 0.40086,2.15928 0.75787,2.56788 0.91994,4.22487 0.58857,6.01739 -0.82255,4.44962 -4.07029,7.87124 -8.43489,8.88649 -0.76782,0.17861 -2.4321,0.28235 -3.69839,0.23053 l -2.30235,-0.0942 -1.13485,2.10881 c -0.62416,1.15985 -1.51972,2.50628 -1.99014,2.99206 -1.91149,1.97396 -6.24927,3.27586 -7.83763,2.3523 z m 10.26556,-23.69715 c 2.09879,-0.65322 3.93765,-1.85281 5.55815,-3.62589 6.50412,-7.11654 2.51348,-18.750025 -7.04136,-20.526929 -2.42429,-0.450842 -2.46147,-0.391962 -2.46147,3.897796 0,3.842623 0.10969,4.159833 1.54773,4.475683 1.07969,0.23714 2.36638,1.60136 2.70843,2.87163 0.55892,2.0757 -0.50584,4.05445 -2.60536,4.84179 -0.68966,0.25862 -1.3414,0.5954 -1.44832,0.7484 -0.23372,0.33446 -0.27035,6.80491 -0.0419,7.40027 0.22102,0.57599 1.77687,0.54196 3.78408,-0.0827 z"
         id="path1176" />
      <path
         style="fill:#000000;stroke-width:0.264583"
         d="m 99.750318,171.77653 c 0,-0.65109 -4.97145,-12.19874 -5.334289,-12.39044 -0.194839,-0.10294 -1.66394,-0.71021 -3.264669,-1.34949 -1.600729,-0.63927 -3.592526,-1.47605 -4.426215,-1.85951 l -1.515798,-0.69719 -5.169164,3.43379 c -2.843043,1.88858 -5.316654,3.43379 -5.496917,3.43379 -0.180263,0 -5.027402,-4.70078 -10.771421,-10.44618 l -10.44367,-10.44618 3.499614,-5.15994 c 1.924788,-2.83797 3.499614,-5.37362 3.499614,-5.63478 0,-0.26117 -0.521364,-1.66208 -1.158586,-3.11315 -0.637222,-1.45107 -1.37388,-3.32463 -1.637018,-4.16347 -0.263139,-0.83884 -0.664509,-1.69108 -0.891936,-1.89387 -0.505132,-0.45042 -11.315251,-4.97102 -12.055168,-5.04126 -0.520646,-0.0494 -0.529166,-0.24337 -0.529166,-12.04492 0,-11.801546 0.0085,-11.99549 0.529166,-12.044915 0.739917,-0.07024 11.550036,-4.59084 12.055168,-5.041256 0.227427,-0.202793 0.627988,-1.055034 0.890137,-1.893872 0.26215,-0.83884 1.065997,-2.855372 1.786327,-4.481184 L 60.626018,77.98648 57.169419,72.8115 C 55.26829,69.965264 53.71282,67.484909 53.71282,67.299603 c 0,-0.185307 4.700738,-5.036531 10.446086,-10.780497 l 10.446085,-10.443575 5.170122,3.499519 c 2.843564,1.924735 5.330753,3.499519 5.527085,3.499519 0.196331,0 1.533178,-0.519978 2.97077,-1.155507 1.437595,-0.635528 3.387715,-1.428085 4.3336,-1.761236 0.945885,-0.333152 1.851435,-0.735908 2.012333,-0.895015 0.385768,-0.381472 4.936519,-11.24814 4.996453,-11.93095 0.0456,-0.51956 0.26339,-0.530416 11.996956,-0.598008 10.04474,-0.05786 11.95051,-0.01034 11.95051,0.298012 0,0.201769 1.10906,2.97086 2.46459,6.153533 l 2.46459,5.78668 2.62864,0.950746 c 1.44575,0.522911 3.61667,1.38644 4.82426,1.918954 1.2076,0.532514 2.37085,0.968208 2.58502,0.968208 0.21416,0 2.52771,-1.42875 5.14123,-3.175 2.61351,-1.74625 4.90364,-3.175 5.08916,-3.175 0.18552,0 5.03454,4.698364 10.77561,10.440809 l 10.4383,10.440808 -2.89893,4.284683 c -4.24573,6.275274 -3.94788,5.449792 -2.83475,7.85654 0.51751,1.118947 1.45591,3.390736 2.08533,5.048416 0.62942,1.657684 1.18662,3.056197 1.23823,3.107809 0.24682,0.246814 11.10806,4.858433 11.44254,4.858433 0.32894,0 0.38326,1.687322 0.38326,11.906246 0,10.21893 -0.0543,11.90625 -0.38326,11.90625 -0.34364,0 -11.19915,4.61504 -11.45328,4.86917 -0.0575,0.0575 -0.51778,1.21791 -1.02281,2.57865 -0.50502,1.36073 -1.4578,3.68468 -2.11729,5.16433 l -1.19907,2.69027 3.19306,4.77888 c 1.75619,2.62839 3.19306,4.93067 3.19306,5.11619 0,0.18552 -4.70006,5.03625 -10.44459,10.7794 l -10.44459,10.44208 -4.9741,-3.36573 c -2.73575,-1.85116 -5.11413,-3.36574 -5.2853,-3.36574 -0.17116,0 -1.29923,0.4357 -2.50683,0.96821 -1.20759,0.53251 -3.37851,1.39604 -4.82426,1.91895 l -2.62864,0.95075 -2.46459,5.78668 c -1.35553,3.18267 -2.46459,5.95055 -2.46459,6.15084 0,0.30375 -1.97473,0.36415 -11.90625,0.36415 -9.87348,0 -11.906252,-0.0615 -11.906252,-0.36053 z m 7.955622,-21.75846 c 0.7904,-0.23274 2.00263,-0.73875 2.69386,-1.12448 l 1.25677,-0.70132 1.25677,0.70311 c 2.13594,1.19496 4.10886,1.63138 6.66613,1.47457 4.58562,-0.28118 8.92221,-2.36974 12.05629,-5.80647 l 1.58435,-1.73735 2.23283,-0.44397 c 2.83875,-0.56445 4.84557,-1.38259 7.15127,-2.91542 2.69862,-1.79404 5.08531,-4.50814 6.49899,-7.39053 1.53022,-3.12003 1.99966,-4.96499 2.11487,-8.31178 l 0.094,-2.732 1.96521,-2.05696 c 3.55272,-3.71859 5.17843,-7.47325 5.40547,-12.4842 0.27279,-6.02043 -1.42637,-10.458128 -5.67047,-14.809597 l -1.69887,-1.741856 -0.0947,-2.756061 c -0.11644,-3.388172 -0.58259,-5.210474 -2.15013,-8.4055 -0.9986,-2.035392 -1.62036,-2.884323 -3.50417,-4.784513 -1.93391,-1.950714 -2.70342,-2.51655 -4.94673,-3.637393 -1.5254,-0.762141 -3.41349,-1.477772 -4.43418,-1.680652 -1.74734,-0.347316 -1.79065,-0.376441 -2.54341,-1.710248 -1.04372,-1.849377 -3.23441,-4.191125 -5.1163,-5.469091 -5.11663,-3.474636 -11.12774,-4.084002 -15.61048,-1.582485 l -1.25677,0.701319 -1.25677,-0.703107 c -3.16003,-1.767896 -6.90329,-1.985967 -11.080891,-0.645538 -3.865398,1.240257 -7.751238,4.341752 -9.645895,7.698902 -0.752756,1.333807 -0.796068,1.362932 -2.543408,1.710248 -1.020696,0.20288 -2.908787,0.918511 -4.434178,1.680652 -2.24331,1.120843 -3.012827,1.686679 -4.946732,3.637393 -1.883815,1.90019 -2.50557,2.749121 -3.504173,4.784513 -1.58741,3.235524 -2.048389,5.044054 -2.157828,8.465701 l -0.09008,2.816264 -1.501714,1.417069 c -2.385351,2.250898 -4.050407,4.91966 -5.187744,8.314952 -0.537839,1.605608 -0.612109,2.326398 -0.597854,5.802118 0.01463,3.56759 0.08498,4.16103 0.695952,5.8711 1.050082,2.93908 2.482035,5.26119 4.632229,7.51177 l 1.966889,2.05872 0.08575,2.73024 c 0.104127,3.31544 0.574413,5.15904 2.119815,8.31002 1.413671,2.88239 3.800361,5.59649 6.498986,7.39053 2.307781,1.53422 4.315087,2.352 7.15127,2.91348 2.201073,0.43574 2.252948,0.46429 3.647217,2.00726 1.60351,1.77453 4.127151,3.66462 6.02932,4.51568 3.222449,1.44177 7.475589,1.90806 10.169209,1.11491 z m -4.53413,-8.31702 c -2.87702,-0.47137 -5.222924,-2.38624 -6.846203,-5.58831 l -0.985195,-1.94338 -3.417443,-0.13947 c -2.97208,-0.12129 -3.615798,-0.23148 -4.939495,-0.84558 -2.138831,-0.99225 -4.262496,-3.087 -5.285115,-5.21317 -0.705668,-1.46719 -0.851946,-2.11181 -0.935022,-4.12053 -0.08208,-1.98464 0.01392,-2.75019 0.5764,-4.5963 0.371187,-1.21828 0.616339,-2.30977 0.544782,-2.42555 -0.07155,-0.11578 -1.051882,-0.70478 -2.178505,-1.30888 -4.869201,-2.61091 -7.307915,-7.01143 -6.499888,-11.72867 0.617524,-3.60508 2.775955,-6.390148 6.499888,-8.386953 1.126623,-0.604107 2.106951,-1.193102 2.178505,-1.308881 0.07156,-0.115779 -0.173595,-1.207277 -0.544782,-2.425554 -0.562478,-1.846114 -0.658482,-2.611662 -0.5764,-4.596296 0.127011,-3.071011 1.080564,-5.206296 3.234822,-7.243702 2.286407,-2.162392 3.855688,-2.757611 7.727259,-2.930916 1.770944,-0.07927 3.291874,-0.216472 3.379851,-0.304885 0.08798,-0.08842 0.399629,-1.025631 0.692557,-2.082699 0.681522,-2.45935 1.096971,-3.243588 2.529737,-4.77533 2.021187,-2.160817 5.915187,-3.368719 7.729007,-2.397506 1.41905,0.759836 1.36666,-0.660992 1.36666,37.065242 0,29.5321 -0.058,35.08076 -0.37447,35.83825 -0.56569,1.35388 -1.76473,1.80513 -3.87695,1.45907 z m -3.744885,-23.23246 c 0.528339,-0.33528 0.337222,-7.98715 -0.205774,-8.23882 -0.218281,-0.10116 -0.869439,-0.41161 -1.447017,-0.68988 -3.442554,-1.65859 -2.843363,-6.46875 0.927518,-7.44588 l 0.916374,-0.23746 v -4.08422 -4.084221 l -1.723803,0.01781 c -1.425691,0.01471 -2.079122,0.188701 -3.778387,1.006015 -8.119102,3.90513 -9.710817,14.675166 -3.053469,20.660696 2.381888,2.14152 7.110568,3.89175 8.364558,3.09597 z m 18.371125,23.18971 c -0.54677,-0.1466 -1.06245,-0.54893 -1.38807,-1.08297 -0.50758,-0.83247 -0.5181,-1.56689 -0.5181,-36.1716 0,-34.51855 0.0117,-35.341058 0.51441,-36.165529 1.32516,-2.173305 5.98864,-1.321188 8.66606,1.583473 1.35963,1.475021 1.77095,2.264609 2.44296,4.68965 0.29293,1.057068 0.60458,1.994283 0.69255,2.082699 0.088,0.08841 1.60891,0.225613 3.37986,0.304885 3.87157,0.173305 5.44085,0.768524 7.72725,2.930916 2.15426,2.037406 3.10782,4.172691 3.23483,7.243702 0.0821,1.984634 -0.0139,2.750182 -0.5764,4.596296 -0.37119,1.218277 -0.61634,2.309775 -0.54479,2.425554 0.0716,0.115779 1.05189,0.704901 2.17851,1.309161 2.68207,1.438519 4.40075,3.120065 5.49895,5.380153 2.7198,5.59734 0.51264,11.51172 -5.49895,14.73519 -1.12662,0.6041 -2.11766,1.21042 -2.2023,1.34738 -0.0846,0.13695 0.12276,1.04985 0.4609,2.02868 0.49132,1.42221 0.6148,2.33767 0.6148,4.55779 0,2.5916 -0.0571,2.8949 -0.85114,4.51741 -1.04121,2.12767 -3.17664,4.22823 -5.29972,5.21317 -1.3237,0.6141 -1.96741,0.72429 -4.9395,0.84558 l -3.41744,0.13947 -0.98655,1.94605 c -0.5426,1.07034 -1.49108,2.46015 -2.10774,3.08847 -1.84877,1.88376 -5.05865,2.99647 -7.08038,2.45442 z m 9.98937,-23.68805 c 5.62285,-1.73337 9.46186,-7.98269 8.47995,-13.80408 -0.69384,-4.11357 -3.29926,-7.608592 -7.05605,-9.4653 -1.64736,-0.814171 -2.25445,-0.975188 -3.74133,-0.992317 l -1.77488,-0.02044 v 4.084221 4.084216 l 0.91637,0.23746 c 3.77088,0.97713 4.37007,5.78729 0.92752,7.44588 -0.57758,0.27827 -1.22874,0.58872 -1.44702,0.68988 -0.54302,0.25168 -0.73365,7.89638 -0.20577,8.2521 0.41897,0.28234 1.99702,0.0754 3.90121,-0.51162 z"
         id="path1174" />
      <path
         style="fill:#000000;stroke-width:0.264583"
         d="m 99.823811,171.79801 c 0.07156,-0.18648 -1.017032,-3.0682 -2.419091,-6.40381 l -2.549194,-6.06476 -2.566844,-0.97297 c -1.411767,-0.53513 -3.518435,-1.41952 -4.681487,-1.96531 -1.163053,-0.54579 -2.340372,-0.93331 -2.616266,-0.86116 -0.275892,0.0721 -2.736033,1.65213 -5.466977,3.51107 l -4.965356,3.3799 -10.422888,-10.42039 C 58.403119,146.26937 53.71282,141.49736 53.71282,141.39611 c 0,-0.10125 1.547812,-2.47395 3.439583,-5.27265 1.891771,-2.79872 3.439583,-5.30945 3.439583,-5.5794 0,-0.26996 -0.342401,-1.17205 -0.760891,-2.00464 -0.41849,-0.8326 -1.202281,-2.70444 -1.741757,-4.15965 -0.539477,-1.4552 -1.127023,-2.79762 -1.305658,-2.98314 -0.458315,-0.47597 -11.54331,-5.11929 -12.265131,-5.13765 l -0.595312,-0.0151 V 104.40373 92.563629 l 0.595312,-0.01514 c 0.721821,-0.01836 11.806816,-4.661675 12.265131,-5.13765 0.178635,-0.185521 0.766181,-1.527934 1.305658,-2.983143 0.539476,-1.455208 1.323267,-3.327048 1.741757,-4.159641 0.41849,-0.832596 0.761462,-1.785096 0.76216,-2.116667 7.14e-4,-0.338328 -1.523828,-2.850946 -3.474382,-5.726183 L 53.643221,67.301873 64.06166,56.880929 c 5.730141,-5.731519 10.506861,-10.420943 10.614932,-10.420943 0.108072,0 2.479696,1.547812 5.270275,3.439583 2.790582,1.891771 5.220446,3.439583 5.399699,3.439583 0.179252,0 1.218599,-0.423934 2.309659,-0.942077 1.091059,-0.518142 3.157246,-1.386894 4.591523,-1.930561 l 2.607778,-0.988484 2.549194,-6.06476 c 1.402059,-3.335618 2.490647,-6.217334 2.419091,-6.403814 -0.104603,-0.272589 2.206159,-0.339053 11.788009,-0.339053 11.23236,0 11.91608,0.02691 11.88288,0.467643 -0.0396,0.525778 4.49269,11.408912 4.94002,11.862186 0.15811,0.160208 1.39835,0.671632 2.75608,1.136497 1.35773,0.464864 3.48775,1.31605 4.73335,1.891524 1.24562,0.575474 2.43474,1.046316 2.64251,1.046316 0.20776,0 2.58553,-1.504322 5.28391,-3.342938 l 4.90616,-3.342937 10.42179,10.419285 c 5.73199,5.730607 10.42179,10.503625 10.42179,10.606709 0,0.103085 -1.42875,2.296803 -3.175,4.874932 -1.74625,2.578129 -3.175,4.888886 -3.175,5.13502 0,0.246131 0.4962,1.505789 1.10265,2.799241 0.60646,1.29345 1.52919,3.528526 2.05052,4.966833 l 0.94788,2.615101 5.66627,2.452987 c 3.11644,1.349142 5.82512,2.392029 6.01927,2.317525 0.29107,-0.111694 0.353,1.963285 0.353,11.827403 0,9.86412 -0.0619,11.9391 -0.353,11.82741 -0.19415,-0.0745 -2.90283,0.96838 -6.01927,2.31752 l -5.66627,2.45299 -0.94788,2.6151 c -0.52133,1.43831 -1.44406,3.67338 -2.05052,4.96683 -0.60645,1.29346 -1.10265,2.60269 -1.10265,2.90941 0,0.30671 1.44461,2.68483 3.21024,5.2847 l 3.21024,4.72702 -10.41888,10.42139 c -5.73038,5.73176 -10.49644,10.42138 -10.59123,10.42138 -0.0948,0 -2.37851,-1.48828 -5.07491,-3.30729 -2.6964,-1.81901 -5.01377,-3.30729 -5.14971,-3.30729 -0.13594,0 -1.24608,0.45853 -2.46697,1.01896 -1.2209,0.56043 -3.35091,1.41263 -4.73336,1.89377 -1.38245,0.48114 -2.6429,1.00488 -2.80101,1.16385 -0.44595,0.44839 -4.97971,11.33299 -4.94002,11.85994 0.0332,0.44073 -0.65052,0.46764 -11.88288,0.46764 -9.58185,0 -11.892612,-0.0665 -11.788009,-0.33905 z m 7.470259,-21.501 c 0.86324,-0.22485 2.19581,-0.74802 2.96128,-1.16262 l 1.39175,-0.7538 1.65838,0.8723 c 3.90623,2.05465 8.00014,1.86918 13.16422,-0.5964 2.15263,-1.02776 2.8404,-1.53227 4.83047,-3.54328 1.80553,-1.82455 2.48269,-2.3449 3.05156,-2.3449 1.0994,0 4.42452,-0.9825 5.96943,-1.76384 6.85782,-3.46835 11.00405,-9.95248 11.05351,-17.28615 l 0.017,-2.51355 1.79021,-1.85208 c 2.98173,-3.08476 4.61019,-6.08584 5.41402,-9.97741 1.35363,-6.55337 -0.78145,-13.389437 -5.62472,-18.009141 l -1.58323,-1.510142 -0.014,-2.581859 c -0.0268,-4.936903 -1.82356,-9.405501 -5.26039,-13.082701 -2.51672,-2.692728 -6.28767,-4.870148 -9.81315,-5.666303 -1.73167,-0.391059 -1.79117,-0.432689 -2.53541,-1.773949 -1.1938,-2.151422 -4.41462,-5.163921 -6.89486,-6.448894 -4.92945,-2.553863 -9.63575,-2.814247 -13.5599,-0.750225 l -1.65364,0.869784 -1.65365,-0.869784 c -3.89143,-2.046811 -7.99913,-1.864562 -13.125438,0.582344 -2.00734,0.958149 -2.86313,1.566184 -4.52157,3.212559 -1.125085,1.116898 -2.388565,2.648796 -2.807734,3.404216 -0.744241,1.34126 -0.803738,1.38289 -2.535404,1.773949 -4.924351,1.11206 -9.710361,4.600538 -12.377576,9.0219 -1.84559,3.059385 -3.07808,8.07258 -2.738429,11.138666 0.114985,1.037998 0.05227,1.147586 -1.509009,2.636793 -8.063118,7.690913 -8.088728,20.563807 -0.05615,28.225587 l 1.572828,1.50022 0.02376,2.59178 c 0.06809,7.42808 4.181182,13.88351 11.063782,17.36439 1.544915,0.78134 4.870032,1.76384 5.969439,1.76384 0.568867,0 1.246021,0.52035 3.051559,2.3449 1.982753,2.00363 2.685743,2.52039 4.830466,3.55088 1.380505,0.66329 3.164846,1.33333 3.965216,1.48896 0.80036,0.15564 1.69333,0.32986 1.98437,0.38718 1.21114,0.2385 3.02867,0.14028 4.50105,-0.24322 z m -4.911,-8.93369 c -2.5541,-0.71791 -4.325033,-2.33432 -5.931876,-5.4143 l -1.066501,-2.04425 -3.175,-0.0182 c -4.199244,-0.024 -6.156693,-0.79638 -8.51626,-3.3604 -2.866617,-3.11501 -3.564998,-7.06058 -2.05463,-11.60788 0.677265,-2.03905 0.52877,-2.32649 -1.864209,-3.6085 -2.64606,-1.4176 -4.413107,-3.13361 -5.504171,-5.34524 -0.789795,-1.60093 -0.846146,-1.90086 -0.846146,-4.50379 0,-2.60318 0.05627,-2.90261 0.846146,-4.50254 1.09144,-2.210778 2.858947,-3.926844 5.504171,-5.343992 2.392979,-1.282012 2.541474,-1.56945 1.864209,-3.608504 -2.028621,-6.10761 0.136793,-11.568974 5.600885,-14.125931 1.595427,-0.746591 2.052376,-0.833377 4.813784,-0.91426 1.678065,-0.04915 3.134609,-0.176226 3.236765,-0.282385 0.102158,-0.106156 0.382333,-0.958418 0.622609,-1.893914 0.615077,-2.394748 1.477526,-3.960584 2.907416,-5.278611 1.674128,-1.543156 3.307978,-2.22825 5.383558,-2.257386 1.52156,-0.02135 1.7341,0.04464 2.3151,0.718839 l 0.63973,0.742368 v 35.689236 35.68924 l -0.60404,0.70224 c -0.73297,0.85213 -2.36861,1.07488 -4.17154,0.56811 z m -2.528769,-23.0906 c 0.228609,-0.59574 0.191769,-7.58999 -0.04189,-7.95463 -0.106913,-0.16684 -0.689526,-0.43639 -1.294696,-0.599 -0.6876,-0.18476 -1.407102,-0.64507 -1.91823,-1.22721 -0.681598,-0.7763 -0.817919,-1.1527 -0.817919,-2.25841 0,-0.72977 0.184375,-1.68339 0.40972,-2.11916 0.434753,-0.84072 1.807446,-1.82461 2.547943,-1.82625 1.09633,-0.002 1.275671,-0.64874 1.275671,-4.597184 0,-2.575277 -0.10031,-3.864951 -0.317501,-4.082142 -0.420336,-0.420336 -1.610675,-0.3966 -3.351895,0.06684 -8.053247,2.143448 -11.917185,10.899826 -8.113606,18.386876 1.830128,3.60247 6.352484,6.56232 10.101047,6.61108 1.00824,0.0131 1.402361,-0.0907 1.521354,-0.40081 z m 17.717559,23.18993 c -0.31185,-0.13411 -0.75834,-0.51701 -0.99219,-0.85087 -0.38542,-0.55026 -0.42519,-3.94101 -0.42519,-36.25216 V 68.714494 l 0.63973,-0.74236 c 0.581,-0.674203 0.79354,-0.740199 2.31511,-0.718839 2.07557,0.02914 3.70942,0.71423 5.38355,2.257386 1.42989,1.318027 2.29234,2.883862 2.90742,5.278611 0.24027,0.935496 0.54552,1.812825 0.67831,1.949622 0.1328,0.136798 1.16537,0.222409 2.2946,0.190249 3.99476,-0.113768 6.8186,0.915112 9.08308,3.309456 2.99311,3.164781 3.74696,7.164056 2.21805,11.767163 -0.67726,2.039054 -0.52877,2.326492 1.86421,3.608504 2.64544,1.417259 4.41282,3.133314 5.50417,5.344304 0.78989,1.60026 0.84615,1.89966 0.84615,4.50348 0,2.60381 -0.0563,2.90322 -0.84615,4.50348 -1.09135,2.21098 -2.85873,3.92704 -5.50417,5.3443 -2.39298,1.28201 -2.54147,1.56945 -1.86421,3.6085 1.51037,4.54729 0.81199,8.49287 -2.05463,11.60788 -2.38017,2.58641 -4.24573,3.32115 -8.51626,3.35407 l -3.175,0.0245 -1.06856,2.04825 c -1.27249,2.43913 -2.68562,3.96245 -4.48769,4.83763 -1.45782,0.70798 -3.91634,1.05216 -4.80033,0.672 z m 11.68021,-23.91997 c 4.5484,-2.16002 7.27533,-6.49728 7.27533,-11.5716 0,-5.84559 -3.82887,-10.770169 -9.55977,-12.295502 -1.74122,-0.463444 -2.93156,-0.48718 -3.3519,-0.06684 -0.21719,0.217191 -0.3175,1.506865 -0.3175,4.082142 0,3.94844 0.17934,4.59473 1.27567,4.59718 0.7405,0.002 2.11319,0.98553 2.54795,1.82625 0.22534,0.43577 0.40972,1.38939 0.40972,2.11916 0,1.10571 -0.13633,1.48211 -0.81792,2.25841 -0.51113,0.58214 -1.23063,1.04245 -1.91823,1.22721 -0.60517,0.16261 -1.18779,0.43216 -1.2947,0.599 -0.24118,0.37637 -0.26688,7.36829 -0.0294,7.98726 0.30409,0.79243 3.35321,0.39016 5.78072,-0.76267 z"
         id="path1172" />
    </g>
    <path
       style="fill:#000000;stroke-width:0.264583"
       id="path950"
       d="" />
    <path
       style="fill:#000000;stroke-width:0.264583"
       id="path930"
       d="" />
    <path
       style="fill:#000000;stroke-width:0.264583"
       id="path910"
       d="" />
  </g>
</svg>
