<svg width="512.114" height="512.02" viewBox="0 0 135.497 135.472" xmlns="http://www.w3.org/2000/svg">
  <g style="display:inline;fill:#000;image-rendering:auto">
    <path style="fill:#000;stroke-width:.264583" d="M99.193 171.658c-.233-.246-1.467-2.948-2.741-6.005l-2.317-5.557-2.02-.756a73.388 73.388 0 0 1-4.241-1.785c-1.221-.565-2.352-1.028-2.514-1.028-.162 0-2.616 1.548-5.453 3.44-2.838 1.89-5.28 3.438-5.426 3.439-.146 0-5.134-4.87-11.084-10.821-8.572-8.574-10.79-10.93-10.68-11.347.075-.29 1.659-2.76 3.52-5.49l3.382-4.965-.428-1.085c-.235-.597-.957-2.375-1.605-3.952-.647-1.576-1.23-3.068-1.295-3.315-.078-.3-2.007-1.233-5.78-2.796-3.114-1.29-5.87-2.561-6.125-2.824-.427-.442-.463-1.406-.463-12.415 0-10.778.043-11.98.44-12.38.243-.245 2.99-1.516 6.108-2.826l5.667-2.381 1.008-2.646c.554-1.455 1.318-3.334 1.697-4.175.38-.84.69-1.682.69-1.87 0-.188-1.547-2.652-3.439-5.474-1.892-2.823-3.44-5.256-3.44-5.407 0-.15 4.87-5.143 10.821-11.093 8.574-8.571 10.93-10.79 11.347-10.68.29.075 2.732 1.64 5.428 3.477 2.696 1.837 5.035 3.34 5.197 3.34.163 0 .977-.341 1.81-.758.832-.417 2.644-1.2 4.027-1.74 1.382-.54 2.644-1.122 2.805-1.293.16-.17 1.28-2.691 2.487-5.602 1.207-2.91 2.41-5.5 2.674-5.755.441-.427 1.405-.463 12.407-.463s11.965.036 12.404.463c.262.255 1.457 2.785 2.655 5.623 1.198 2.837 2.318 5.29 2.489 5.448.171.16 1.263.625 2.428 1.035A62.535 62.535 0 0 1 135.969 51c1.221.559 2.325 1.016 2.453 1.016.128 0 2.381-1.435 5.007-3.19 2.625-1.754 4.956-3.26 5.18-3.345.486-.187 22.05 21.233 22.05 21.902 0 .231-1.43 2.519-3.175 5.084-1.747 2.565-3.175 4.851-3.175 5.08 0 .229.32 1.037.71 1.796.39.76 1.26 2.81 1.934 4.556l1.224 3.175 5.166 2.252c2.84 1.239 5.364 2.45 5.606 2.693.398.398.44 1.593.44 12.385s-.042 11.986-.44 12.384c-.242.243-2.765 1.455-5.606 2.694l-5.166 2.252-1.233 3.175c-.678 1.746-1.6 3.933-2.05 4.86l-.816 1.684 3.173 4.748c1.745 2.612 3.243 4.932 3.329 5.155.182.475-21.224 22.048-21.88 22.052-.22.001-2.622-1.503-5.34-3.344l-4.94-3.346-2.732 1.204c-1.503.662-3.506 1.47-4.452 1.798-.946.326-1.86.724-2.031.883-.171.16-1.291 2.611-2.49 5.449-1.197 2.837-2.392 5.367-2.654 5.622-.44.428-1.392.462-12.46.447-10.895-.014-12.022-.056-12.408-.463zm10.387-23.274 2.077-1.06 2.056 1.05c1.74.888 2.383 1.072 4.168 1.188 5.28.342 10.603-2.198 14.336-6.84.422-.525.901-.753 1.845-.876 2.14-.28 5.416-1.389 7.22-2.443 3.555-2.078 6.91-6.197 8.195-10.062.72-2.166 1.164-5.417.97-7.1l-.156-1.345 2.217-2.256c3.653-3.72 5.441-8.05 5.441-13.178 0-3.13-.57-5.541-1.987-8.414-.97-1.966-1.645-2.897-3.35-4.622l-2.135-2.161-.06-2.787c-.071-3.247-.592-5.465-1.897-8.077-2.516-5.036-6.9-8.538-12.396-9.905-1.23-.305-2.22-.707-2.375-.961-3.058-5.055-6.857-7.959-11.783-9.006-3.164-.673-5.712-.394-8.253.905l-2.056 1.05-2.057-1.05c-2.54-1.299-5.088-1.578-8.253-.905-4.926 1.047-8.725 3.95-11.783 9.006-.154.253-1.136.653-2.338.952-5.488 1.364-10.051 4.988-12.434 9.874-1.312 2.691-1.825 4.889-1.895 8.117l-.06 2.787-2.097 2.121c-3.607 3.65-5.385 7.97-5.385 13.076 0 5.164 1.784 9.455 5.483 13.189l2.188 2.209-.158 1.363c-.196 1.7.245 4.943.969 7.118 1.285 3.865 4.64 7.984 8.195 10.062 1.803 1.054 5.079 2.163 7.22 2.443.943.123 1.423.35 1.844.875 1.623 2.018 4.03 4.02 6.079 5.052 2.803 1.413 4.967 1.893 7.973 1.769 2.13-.088 2.555-.199 4.432-1.158zm-7.052-5.977c-3.103-.796-5.43-2.768-6.818-5.778l-.854-1.853-1.853.132c-4.841.344-9.017-1.638-11.408-5.416-1.704-2.693-2.138-6.411-1.16-9.943.292-1.05.53-2.027.53-2.17 0-.144-.904-.758-2.01-1.364-3.655-2.007-5.869-4.954-6.504-8.66-.856-4.986 1.653-9.832 6.372-12.312 1.052-.553 1.97-1.154 2.04-1.337.07-.183-.117-1.211-.415-2.286-1.303-4.704-.242-9.074 2.959-12.18 2.333-2.265 4.75-3.181 8.534-3.239l2.642-.04.45-1.667c1.21-4.487 3.84-7.127 7.94-7.974 2.484-.513 4.231.256 4.962 2.184.195.514.282 11.665.282 35.983 0 33.026-.03 35.296-.463 36.146-.914 1.792-2.74 2.412-5.226 1.774zm-3.571-28.048v-3.54l-.784-.156c-1.07-.214-2.824-1.858-3.201-3-.805-2.44.353-5.005 2.707-6l1.278-.54v-6.846l-1.359.16c-2.907.345-6.725 2.92-8.257 5.569-1.362 2.356-1.9 5.157-1.494 7.778.738 4.768 4.408 8.703 9.06 9.713.909.198 1.742.369 1.851.38.11.012.199-1.571.199-3.517zm18.69 28.147c-.415-.13-.997-.452-1.293-.715-1.303-1.16-1.258.195-1.258-37.362 0-24.276.088-35.411.282-35.925.73-1.928 2.478-2.697 4.962-2.184 4.1.847 6.73 3.487 7.94 7.974l.45 1.667 2.642.04c3.785.058 6.2.974 8.534 3.24 3.201 3.105 4.262 7.475 2.959 12.179-.298 1.075-.484 2.103-.414 2.286.07.183.988.784 2.04 1.337 1.05.552 2.478 1.571 3.171 2.264 2.498 2.498 3.808 6.504 3.23 9.879-.662 3.861-2.839 6.806-6.546 8.852-1.099.607-1.998 1.215-1.998 1.352s.238 1.109.53 2.16c2.395 8.644-3.642 16.005-12.593 15.353l-1.876-.137-.453 1.157c-1.44 3.679-4.643 6.224-8.406 6.68-.63.077-1.487.033-1.903-.097zm9.765-25.286c2.912-.795 5.912-3.482 7.24-6.483 1.544-3.492 1.136-8.072-.996-11.17-1.831-2.663-5.137-4.798-7.94-5.13l-1.36-.161v6.848l1.278.54c2.355.994 3.512 3.56 2.707 5.999-.377 1.142-2.13 2.786-3.201 3l-.783.157v7.064l.86-.15c.472-.082 1.46-.313 2.195-.514z" transform="translate(-43.923 -36.67)"/>
    <path style="fill:#000;stroke-width:.264583" d="M98.99 171.013c-.298-.619-1.437-3.261-2.532-5.873-1.094-2.611-2.14-4.89-2.325-5.062-.185-.173-1.645-.848-3.246-1.5-1.601-.651-3.53-1.46-4.288-1.798l-1.377-.613-5.244 3.487c-2.884 1.918-5.36 3.487-5.5 3.487-.44 0-21.559-21.272-21.559-21.715 0-.23 1.548-2.695 3.44-5.477 1.891-2.781 3.44-5.157 3.44-5.278 0-.122-.52-1.408-1.155-2.86-.634-1.45-1.363-3.292-1.618-4.093-.256-.8-.6-1.592-.765-1.76-.164-.169-2.383-1.164-4.93-2.212-2.546-1.049-5.255-2.2-6.019-2.558l-1.389-.652V92.271l1.39-.651c.763-.359 3.472-1.512 6.019-2.563 2.546-1.05 4.76-2.014 4.918-2.142.158-.128.435-.74.615-1.36.18-.62.925-2.531 1.655-4.247.73-1.715 1.263-3.285 1.185-3.489-.078-.203-1.584-2.528-3.346-5.165-1.763-2.638-3.275-4.98-3.36-5.203-.187-.486 20.968-21.785 21.637-21.785.232 0 2.721 1.563 5.533 3.472l5.112 3.473 1.877-.849a105.388 105.388 0 0 1 4.258-1.774c1.31-.51 2.532-1.072 2.717-1.25.185-.177 1.231-2.46 2.325-5.07 1.095-2.612 2.234-5.255 2.532-5.873l.543-1.125h24.256l.77 1.654c.422.91 1.589 3.588 2.591 5.951l1.824 4.298 1.726.562c.95.31 3.11 1.156 4.799 1.882l3.073 1.32 4.815-3.218c2.649-1.77 4.998-3.288 5.222-3.374.486-.186 21.785 20.97 21.785 21.639 0 .231-1.429 2.524-3.175 5.094-1.746 2.57-3.175 4.78-3.175 4.911 0 .132.456 1.233 1.014 2.448a69.675 69.675 0 0 1 1.887 4.653c.48 1.345 1.006 2.552 1.169 2.684.163.132 2.141 1.037 4.397 2.012 2.255.974 4.726 2.067 5.49 2.428l1.389.657v24.265l-1.505.712c-.828.392-3.294 1.478-5.48 2.415-2.186.936-4.112 1.816-4.28 1.956-.169.14-.7 1.354-1.18 2.698a69.674 69.674 0 0 1-1.887 4.653c-.558 1.215-1.014 2.346-1.014 2.514 0 .167 1.43 2.447 3.175 5.067 1.746 2.619 3.175 4.88 3.175 5.025 0 .429-21.26 21.565-21.695 21.569-.218.002-2.61-1.494-5.315-3.324l-4.918-3.328-2.63 1.166c-1.445.641-3.588 1.485-4.76 1.876l-2.133.71-1.805 4.292c-.993 2.361-2.153 5.037-2.577 5.946l-.772 1.654H99.533Zm9.237-21.765c.65-.228 1.625-.708 2.167-1.066.543-.358 1.11-.651 1.263-.651.151 0 .72.293 1.262.651 1.819 1.2 3.175 1.549 6.014 1.543 2.137-.004 3.063-.142 4.819-.712 2.748-.892 5.648-2.813 7.679-5.084l1.547-1.731 2.184-.38c8.938-1.55 15.388-9.24 15.388-18.345v-2.541l2.069-2.113c2.305-2.354 3.741-4.693 4.764-7.757.594-1.776.677-2.471.677-5.6 0-3.162-.082-3.815-.706-5.688-1-3.002-2.39-5.239-4.753-7.645l-2.05-2.088v-2.566c0-5.128-1.783-9.442-5.42-13.118-1.744-1.763-2.569-2.365-4.635-3.382-1.382-.68-3.403-1.453-4.49-1.715l-1.978-.478-.913-1.57c-2.874-4.944-8.565-8.183-14.315-8.146-2.69.017-4.118.396-5.881 1.56-1.218.804-1.307.804-2.525 0-1.819-1.201-3.175-1.55-6.013-1.543-2.13.004-3.065.141-4.798.704-3.899 1.267-7.426 4.081-9.445 7.536-.848 1.45-.864 1.462-2.83 1.937-1.088.262-3.109 1.034-4.491 1.715-2.066 1.017-2.891 1.619-4.636 3.382-3.64 3.68-5.418 7.948-5.418 13.004v2.68l-2.05 2.088c-2.364 2.406-3.754 4.643-4.754 7.645-.624 1.873-.705 2.526-.706 5.688 0 3.129.084 3.824.677 5.6 1.023 3.064 2.46 5.403 4.765 7.757l2.068 2.113v2.655c0 8.989 6.497 16.689 15.384 18.23l2.188.38 1.547 1.732c2.656 2.97 6.303 5.021 10.185 5.726 1.68.305 4.704.105 6.16-.407zm-5.633-7.032c-2.823-.665-5.458-2.952-6.864-5.958l-.812-1.733-2.167.18c-3.824.319-6.914-.85-9.548-3.612-3.147-3.3-3.977-7.583-2.359-12.17.612-1.734.54-1.867-1.604-2.993-2.004-1.052-4.195-3-5.156-4.585-2.116-3.486-2.069-8.479.112-11.934.933-1.478 3.333-3.546 5.289-4.557 1.893-.979 1.966-1.134 1.351-2.875-1.595-4.522-.777-8.828 2.294-12.075 2.475-2.618 4.541-3.504 8.78-3.765l2.874-.178.574-1.993c.675-2.342 1.3-3.424 2.855-4.939 2.172-2.116 6.055-3.276 7.852-2.346.469.242 1.085.821 1.369 1.287.505.83.516 1.604.516 36.434s-.01 35.604-.516 36.433c-.92 1.51-2.444 1.944-4.84 1.38zm-3.432-27.915-.073-3.597-1.017-.35c-1.959-.672-3.145-2.318-3.145-4.363 0-2.055 1.297-3.757 3.368-4.42l.794-.253.073-3.617.074-3.616h-.773c-1.187 0-3.998.951-5.354 1.812-1.85 1.174-3.342 2.876-4.41 5.031-.855 1.725-.978 2.23-1.072 4.394-.158 3.593.737 6.278 2.921 8.765 1.758 2.002 5.275 3.769 7.556 3.797l1.132.014zm17.865 27.702c-1.786-1.127-1.666 1.588-1.665-37.652 0-34.776.012-35.552.517-36.38.284-.467.9-1.046 1.369-1.288 1.797-.93 5.68.23 7.852 2.346 1.555 1.515 2.18 2.597 2.855 4.939l.574 1.993 2.875.178c4.238.261 6.304 1.147 8.78 3.765 3.077 3.253 3.889 7.552 2.285 12.097-.607 1.72-.531 1.875 1.383 2.865 2.642 1.366 4.832 3.547 5.913 5.889 1.559 3.376 1.351 7.48-.536 10.59-.961 1.585-3.152 3.533-5.156 4.585-2.149 1.128-2.217 1.257-1.596 3.015 1.61 4.563.773 8.855-2.367 12.148-2.634 2.762-5.724 3.93-9.548 3.612l-2.167-.18-.816 1.742c-1.63 3.484-4.705 5.793-8.152 6.122-1.271.121-1.706.051-2.4-.386zm11.298-24.867c3.231-1.264 5.9-4.155 6.912-7.49.447-1.47.537-2.327.45-4.303-.095-2.188-.216-2.685-1.073-4.415-1.068-2.155-2.56-3.857-4.41-5.031-1.353-.859-4.166-1.812-5.346-1.812h-.766v7.157l.728.258c1.342.477 2.045.992 2.808 2.056 1.718 2.394.523 5.8-2.386 6.798l-1.018.35-.074 3.63-.073 3.63 1.396-.13c.769-.07 2.052-.385 2.852-.698z" transform="translate(-43.923 -36.67)"/>
    <path style="fill:#000;stroke-width:.264583" d="M97.118 166.25c-1.347-3.238-2.645-6.077-2.885-6.31-.24-.232-1.21-.694-2.156-1.026-.945-.333-2.866-1.136-4.268-1.785l-2.55-1.18-5.184 3.464c-2.852 1.905-5.339 3.464-5.526 3.464-.187 0-5.144-4.81-11.017-10.69-7.563-7.571-10.615-10.793-10.466-11.046.116-.196 1.752-2.633 3.636-5.415l3.424-5.059-1.18-2.614c-.65-1.438-1.448-3.42-1.775-4.406-.699-2.107-.086-1.718-7.625-4.826l-5.623-2.318V92.304l5.623-2.317c7.541-3.109 6.927-2.72 7.621-4.826.325-.986 1.042-2.772 1.592-3.97.55-1.197 1.076-2.416 1.17-2.709.125-.398-.7-1.825-3.289-5.68-1.9-2.833-3.456-5.307-3.456-5.498 0-.191 4.81-5.152 10.689-11.025 7.55-7.54 10.794-10.615 11.046-10.467.197.115 2.549 1.697 5.228 3.515 2.678 1.819 5.012 3.307 5.185 3.307.173 0 1.672-.603 3.332-1.34 1.659-.736 3.52-1.488 4.137-1.671.616-.184 1.287-.524 1.49-.756.204-.233 1.474-3.072 2.823-6.31l2.453-5.887h24.176l2.458 5.817c1.352 3.2 2.597 5.933 2.768 6.075.17.141 1.375.631 2.677 1.089a59.945 59.945 0 0 1 4.352 1.748c1.092.505 2.163.932 2.381.95.219.017 2.568-1.42 5.22-3.193 2.653-1.774 4.977-3.225 5.164-3.225.188 0 5.146 4.81 11.018 10.689 7.551 7.56 10.616 10.794 10.467 11.046-.116.197-1.639 2.465-3.385 5.042l-3.175 4.684 1.211 2.592c.667 1.425 1.537 3.544 1.934 4.708.397 1.164.925 2.299 1.172 2.521.248.223 2.762 1.399 5.587 2.613 2.825 1.215 5.285 2.328 5.467 2.473.481.383.481 23.829 0 24.204-.182.142-2.637 1.25-5.456 2.463-2.819 1.213-5.333 2.392-5.586 2.62-.254.226-.786 1.365-1.183 2.53-.396 1.163-1.246 3.233-1.888 4.599-.641 1.365-1.167 2.588-1.167 2.717s1.43 2.373 3.175 4.986c1.747 2.614 3.175 4.905 3.175 5.093 0 .187-4.814 5.149-10.698 11.027l-10.699 10.686-.744-.484c-.41-.266-2.64-1.773-4.955-3.349-2.316-1.575-4.412-2.864-4.66-2.864-.246 0-1.328.405-2.404.9-1.075.496-3.066 1.288-4.423 1.76-1.558.543-2.598 1.064-2.822 1.415-.195.305-1.33 2.877-2.524 5.714-1.193 2.838-2.29 5.308-2.436 5.49-.206.256-2.978.331-12.232.331H99.567Zm12.507-17.48 2.032-1.004 2.02 1c1.832.904 2.26 1.008 4.578 1.1 3.124.126 5.077-.313 8.198-1.843 1.805-.885 2.662-1.532 4.507-3.405 2.166-2.2 2.348-2.323 3.713-2.51 5.377-.74 10.576-4.206 13.46-8.974 1.615-2.67 2.477-5.695 2.624-9.214l.13-3.106 2.05-2.079c1.623-1.648 2.301-2.595 3.27-4.567 1.644-3.347 2.118-5.298 2.118-8.706 0-3.402-.474-5.359-2.105-8.679-.958-1.951-1.635-2.893-3.27-4.547l-2.061-2.087-.134-3.125c-.227-5.264-2.013-9.36-5.63-12.915-2.798-2.748-5.935-4.367-10.21-5.269-.489-.103-.98-.624-1.7-1.803-1.544-2.53-4.251-5.022-6.823-6.283-3.06-1.5-5.028-1.938-8.137-1.813-2.317.093-2.746.196-4.578 1.101l-2.02.999-2.021-.999c-1.832-.905-2.26-1.008-4.578-1.101-6.511-.262-11.906 2.933-15.759 9.331-.156.26-1.02.607-2.116.849-3.715.821-7.75 3.276-10.174 6.188-2.923 3.513-4.248 7-4.45 11.715l-.135 3.125-2.061 2.087c-1.634 1.654-2.312 2.596-3.27 4.547-1.63 3.32-2.105 5.277-2.105 8.68 0 3.41.474 5.358 2.125 8.719.987 2.009 1.631 2.904 3.27 4.543l2.04 2.04.141 3.13c.106 2.35.31 3.66.824 5.253 2.193 6.816 8.298 12.003 15.252 12.96 1.362.187 1.55.313 3.693 2.482 1.802 1.824 2.712 2.513 4.507 3.408 3.17 1.581 4.631 1.92 7.956 1.842 2.642-.062 2.91-.121 4.829-1.07zm-7.733-6.93c-2.633-.82-4.878-3.036-6.231-6.15-.269-.618-.62-1.135-.78-1.149-.16-.013-1.362-.007-2.671.016-2.977.051-5.339-.627-7.29-2.093-4.292-3.226-5.704-8.023-3.963-13.466.296-.922.537-1.767.537-1.877 0-.11-.976-.725-2.168-1.366-2.658-1.427-4.414-3.135-5.477-5.324-1.57-3.234-1.57-6.704 0-9.938 1.073-2.21 2.875-3.953 5.493-5.315 1.184-.616 2.152-1.22 2.152-1.343s-.266-1.04-.59-2.037c-.442-1.353-.593-2.453-.596-4.328-.004-2.346.059-2.645.948-4.498 1.386-2.89 3.579-4.943 6.42-6.013.614-.23 2.425-.482 4.126-.572l3.033-.161.564-1.852c.77-2.529 1.532-3.934 2.799-5.163a9.2 9.2 0 0 1 5.787-2.581c1.816-.13 1.843-.122 2.768.803l.935.935v72.072l-.9.9c-.806.806-1.047.897-2.315.881-.778-.01-1.94-.18-2.58-.38zm-2.567-24.096c.228-.595.192-6.534-.042-6.886-.107-.16-.633-.435-1.169-.61-1.258-.41-2.78-2.097-3.013-3.34-.384-2.044 1.21-4.687 3.046-5.054.456-.092.943-.38 1.084-.643.14-.262.255-1.899.255-3.637 0-3.771-.066-3.878-2.143-3.484-2.145.407-4.568 1.658-6.2 3.2-6.68 6.32-4.208 17.257 4.578 20.252 2.119.722 3.377.792 3.604.202zm17.235 23.63-.935-.934V68.367l.935-.934c.925-.925.952-.933 2.768-.803a9.2 9.2 0 0 1 5.787 2.581c1.267 1.23 2.029 2.634 2.8 5.163l.563 1.852 3.033.16c1.7.09 3.512.342 4.126.573 2.841 1.07 5.034 3.124 6.42 6.013.89 1.853.952 2.152.948 4.498-.003 1.875-.154 2.975-.595 4.328-.325.997-.59 1.902-.59 2.01 0 .108.975.72 2.167 1.361 2.654 1.425 4.41 3.131 5.483 5.324 2.735 5.59.521 12.064-5.161 15.094-1.006.537-1.986 1.08-2.178 1.207-.283.188-.213.733.364 2.85.893 3.28.807 5.575-.302 8.048-2.093 4.662-5.899 6.97-11.285 6.84-1.416-.033-2.623-.01-2.68.053-.058.062-.539.98-1.07 2.039-1.713 3.423-4.368 5.306-7.83 5.554-1.816.13-1.843.122-2.768-.803zm10.785-23.744c4.87-1.504 8.22-5.74 8.58-10.845.301-4.292-1.711-8.344-5.408-10.887-1.928-1.327-5.625-2.367-6.331-1.781-.43.356-.516 6.324-.103 7.094.14.262.627.552 1.083.643 1.837.367 3.43 3.01 3.046 5.054-.233 1.243-1.755 2.93-3.013 3.34-.536.175-1.062.45-1.17.61-.233.352-.27 6.291-.041 6.886.217.565 1.274.53 3.357-.114z" transform="translate(-43.923 -36.67)"/>
    <path style="fill:#000;stroke-width:.264583" d="M99.338 171.148c-.232-.548-1.316-3.138-2.408-5.758-1.092-2.62-2.145-5.011-2.34-5.316-.21-.328-1.193-.851-2.42-1.287a61.485 61.485 0 0 1-4.291-1.761c-1.224-.566-2.39-1.029-2.59-1.029-.201 0-2.701 1.56-5.557 3.468l-5.191 3.468-10.679-10.677c-5.873-5.872-10.678-10.769-10.678-10.882 0-.114 1.547-2.486 3.44-5.27 1.891-2.786 3.439-5.289 3.439-5.563s-.2-.88-.445-1.346c-.245-.465-1.054-2.379-1.797-4.251l-1.352-3.405-6.207-2.588-6.206-2.588V92.444l6.2-2.585 6.199-2.585 1.497-3.672c.823-2.02 1.692-4.108 1.93-4.64l.432-.968-3.597-5.349-3.597-5.35L63.8 56.614c5.874-5.875 10.778-10.682 10.898-10.682.12 0 2.4 1.488 5.07 3.306 2.668 1.818 5.04 3.378 5.27 3.467.233.089 1.748-.426 3.399-1.155 1.638-.723 3.595-1.516 4.348-1.761.752-.246 1.495-.6 1.65-.787.156-.187 1.403-3.008 2.77-6.27l2.488-5.928h23.921l2.452 5.775c1.349 3.177 2.617 5.93 2.819 6.12.201.19 1.2.614 2.218.942 1.02.329 3.04 1.117 4.49 1.752 1.452.634 2.782 1.153 2.956 1.153.174 0 2.545-1.5 5.27-3.335l4.953-3.335 10.679 10.676c5.873 5.872 10.678 10.77 10.678 10.886 0 .116-1.428 2.31-3.175 4.874-1.746 2.565-3.175 4.866-3.175 5.112 0 .247.471 1.468 1.047 2.713a63.311 63.311 0 0 1 1.893 4.691c.466 1.334 1.037 2.543 1.27 2.685.231.143 2.861 1.316 5.845 2.608l5.424 2.348v23.872l-5.424 2.348c-2.984 1.291-5.614 2.465-5.846 2.607-.232.143-.808 1.367-1.28 2.72a64.357 64.357 0 0 1-2.033 4.972l-1.174 2.51 3.34 5.013 3.341 5.012-10.674 10.678c-5.871 5.872-10.765 10.677-10.875 10.677-.11 0-2.39-1.489-5.068-3.308-2.678-1.819-4.973-3.307-5.1-3.307-.128 0-1.42.52-2.871 1.154-1.451.634-3.472 1.423-4.49 1.751-1.02.329-2.018.753-2.22.942-.201.19-1.47 2.944-2.818 6.12l-2.452 5.776-11.927.069-11.927.068zm9.144-21.65a16.778 16.778 0 0 0 2.182-1.092l.993-.617.992.617c3.73 2.32 8.562 2.305 13.427-.043 2.416-1.165 4.62-2.89 5.93-4.638.781-1.042 1.062-1.223 2.116-1.362 4.744-.625 9.605-3.288 12.475-6.835 2.821-3.487 4.193-7.227 4.343-11.843l.092-2.811 1.833-1.834c2.141-2.14 3.709-4.66 4.744-7.625.677-1.94.739-2.435.739-5.953 0-3.518-.062-4.012-.74-5.953-1.034-2.964-2.602-5.484-4.743-7.625l-1.833-1.834-.092-2.811c-.191-5.877-2.526-10.724-6.936-14.4-1.91-1.592-5.161-3.216-7.723-3.857l-1.966-.492-1.172-1.806c-2.257-3.478-5.257-5.8-9.29-7.189-1.644-.566-2.515-.696-4.788-.712-2.96-.021-4.372.334-6.412 1.611l-.987.619-1.28-.788c-2.906-1.788-6.992-2.033-11.072-.663-3.885 1.304-6.885 3.64-9.144 7.122L89 68.49l-1.967.492c-2.562.641-5.813 2.265-7.723 3.857-4.413 3.678-6.765 8.558-6.941 14.4l-.085 2.81-1.834 1.834c-2.142 2.142-3.71 4.661-4.745 7.626-.679 1.945-.738 2.428-.733 5.953.005 3.43.079 4.055.698 5.894a19.957 19.957 0 0 0 4.78 7.685l1.834 1.834.084 2.81c.096 3.194.556 5.174 1.821 7.838 2.777 5.848 8.5 9.983 15.003 10.84 1.056.14 1.334.32 2.117 1.368 1.946 2.608 6.201 5.24 9.784 6.051 2.181.495 5.788.356 7.39-.283zm-5.522-7.536c-2.985-.607-5.385-2.611-6.897-5.759l-.908-1.892-2.928.03c-3.26.031-4.805-.386-7.129-1.925-4.018-2.661-5.617-7.84-4.051-13.12.75-2.528.831-2.367-1.934-3.805-4.504-2.342-6.968-7.051-6.16-11.772.633-3.692 2.815-6.554 6.424-8.426 1.092-.566 2.057-1.139 2.146-1.273.089-.134-.127-1.216-.48-2.404-.882-2.975-.779-6.21.272-8.493 1.355-2.943 3.389-4.818 6.501-5.993 1.127-.425 2.15-.569 4.261-.6l2.779-.04.8-2.413c.44-1.328 1.155-2.925 1.587-3.55 1.557-2.25 4.403-3.749 7.19-3.79 1.25-.017 1.507.078 2.266.837l.857.857v71.946l-.794.78c-.91.897-2.107 1.15-3.802.805zm-3.533-27.547.073-3.88-1-.324c-2.155-.7-3.248-2.115-3.248-4.207 0-1.89 1.138-3.406 3.055-4.069l1.046-.362.074-3.876.073-3.877h-1.042c-2.608 0-5.998 1.692-8.141 4.063-5.397 5.97-3.534 15.525 3.725 19.102 1.828.9 3.72 1.435 4.782 1.351.5-.04.534-.259.603-3.921zm18.418 27.645c-.308-.062-.903-.472-1.323-.91l-.764-.798V68.431l.856-.857c.76-.76 1.016-.854 2.267-.836 2.787.04 5.632 1.54 7.189 3.788.433.626 1.147 2.223 1.587 3.55l.8 2.414 2.779.04c3.09.045 4.787.526 6.979 1.978 4.014 2.659 5.617 7.842 4.055 13.108-.353 1.188-.569 2.27-.48 2.404.089.134 1.054.707 2.146 1.273 3.61 1.872 5.79 4.734 6.423 8.426.809 4.72-1.655 9.43-6.159 11.772-2.765 1.438-2.683 1.277-1.933 3.806.886 2.987.783 6.217-.27 8.504-1.352 2.939-3.372 4.803-6.5 6-1.217.466-2.007.563-4.405.54l-2.922-.03-.866 1.756c-1.126 2.282-1.983 3.384-3.387 4.35-1.781 1.225-4.498 1.96-6.072 1.643zm10.216-24.5c5.397-1.98 8.82-7.71 7.94-13.297-.736-4.677-4.053-8.56-8.493-9.941-.886-.276-2.08-.502-2.653-.502h-1.042l.073 3.877.074 3.876 1.046.362c1.917.663 3.055 2.179 3.055 4.07 0 2.089-1.094 3.507-3.241 4.203l-.993.322v3.772c0 2.075.083 3.855.185 3.957.274.274 2.391-.092 4.049-.7z" transform="translate(-43.923 -36.67)"/>
    <path style="fill:#000;stroke-width:.264583" d="M99.73 172.074a13.548 13.548 0 0 1-.104-.466c-.238-1.118-4.958-11.82-5.335-12.097-.242-.177-1.048-.521-1.79-.764s-2.692-1.037-4.332-1.764l-2.982-1.322-5.227 3.476c-2.874 1.911-5.361 3.475-5.527 3.475-.56 0-21.022-20.997-20.903-21.45.061-.234 1.616-2.636 3.454-5.337 1.839-2.701 3.343-5.01 3.343-5.132 0-.12-.522-1.412-1.162-2.87-.639-1.457-1.476-3.496-1.86-4.53l-.7-1.882-6.01-2.483c-3.306-1.365-6.13-2.483-6.275-2.484-.172 0-.264-4.192-.264-12.04 0-7.856.092-12.039.264-12.039.146 0 2.972-1.123 6.28-2.496l6.014-2.496.695-1.87c.382-1.028 1.217-3.061 1.856-4.519.64-1.457 1.162-2.774 1.162-2.927 0-.152-1.547-2.588-3.44-5.413-1.891-2.826-3.439-5.278-3.439-5.45 0-.173 4.731-4.975 10.513-10.671 7.161-7.055 10.652-10.32 10.95-10.243.24.063 2.661 1.63 5.379 3.481l4.94 3.367 2.696-1.2c1.483-.661 3.563-1.522 4.623-1.914 1.193-.44 2.041-.924 2.226-1.27.485-.906 4.75-11.111 4.825-11.544.06-.346 1.607-.397 12.057-.397 10.45 0 11.996.05 12.055.397.123.718 4.654 11.238 4.968 11.534.169.159 1.08.556 2.027.883.945.327 3.117 1.188 4.825 1.912l3.106 1.318 4.804-3.228c2.642-1.776 5.003-3.28 5.248-3.345.626-.163 21.26 20.73 21.096 21.361-.065.247-1.502 2.478-3.194 4.957-1.692 2.48-3.077 4.623-3.077 4.762 0 .139.435 1.192.966 2.34.532 1.148 1.46 3.391 2.063 4.984l1.097 2.897 5.543 2.412c3.05 1.326 5.664 2.434 5.809 2.461.172.032.265 4.228.265 11.956s-.093 11.923-.265 11.955c-.145.028-2.76 1.135-5.809 2.462l-5.543 2.412-1.097 2.896c-.603 1.593-1.531 3.836-2.063 4.984-.531 1.149-.966 2.22-.966 2.382 0 .161 1.429 2.436 3.175 5.056 1.746 2.619 3.174 4.9 3.175 5.067 0 .386-20.87 20.994-21.26 20.994-.16 0-2.498-1.494-5.196-3.32l-4.906-3.32-2.641 1.162c-1.453.639-3.594 1.497-4.759 1.906-1.164.41-2.254.875-2.423 1.034-.314.296-4.845 10.816-4.968 11.534-.058.345-1.637.406-12.014.466-6.571.038-11.957.038-11.968 0zm8.09-22.207c.582-.147 1.673-.616 2.424-1.043l1.365-.775 1.81.928c2.251 1.156 4.483 1.532 7.112 1.198 4.29-.544 7.176-2 10.51-5.302 2.143-2.122 2.417-2.308 3.61-2.45 5.74-.68 11.71-5.042 14.423-10.538 1.445-2.928 1.995-5.291 2-8.61l.006-2.426 1.065-.911c2.679-2.294 5.035-6.112 5.993-9.713.624-2.346.615-7.194-.016-9.525-.98-3.617-3.345-7.46-5.977-9.713l-1.065-.912-.005-2.427c-.006-3.325-.556-5.682-2.014-8.634-1.036-2.1-1.624-2.893-3.643-4.914-3.099-3.1-5.763-4.534-10.279-5.529-.527-.116-1.02-.625-1.794-1.851-1.278-2.023-4.13-4.784-6.105-5.908-3.085-1.758-7.27-2.636-10.33-2.169-.945.145-2.47.655-3.484 1.165l-1.803.908-1.77-.907c-1.013-.52-2.487-1.017-3.45-1.165-3.06-.468-7.244.41-10.33 2.168-1.975 1.124-4.827 3.885-6.105 5.908-.774 1.226-1.267 1.735-1.794 1.851-4.486.989-7.169 2.434-10.262 5.527-3.896 3.896-5.678 8.087-5.678 13.35v2.538l-1.732 1.71c-2.73 2.693-4.365 5.458-5.327 9.004-.634 2.335-.636 7.176-.004 9.525.973 3.617 3.323 7.423 5.998 9.713l1.065.911v2.583c0 3.248.655 5.912 2.17 8.829 1.403 2.699 4.31 5.824 6.934 7.455 2.041 1.268 5.28 2.466 7.323 2.708 1.194.14 1.468.327 3.611 2.45 2.495 2.47 4.24 3.604 6.941 4.51 3.034 1.016 5.866 1.175 8.607.483zm-5.613-8.276c-1.458-.456-3.202-1.495-4.108-2.45-.399-.419-1.235-1.71-1.858-2.867l-1.132-2.105-2.303.095c-1.266.051-2.93-.052-3.698-.231-4.365-1.015-7.613-4.437-8.435-8.886-.331-1.793-.17-3.45.589-6.018.293-.996.474-1.968.4-2.16-.073-.19-.964-.784-1.978-1.317-4.452-2.34-6.657-5.668-6.657-10.051 0-4.628 2.14-7.955 6.632-10.316 1.029-.54 1.93-1.14 2.003-1.33.074-.192-.136-1.224-.466-2.292-1.555-5.038-.182-9.858 3.638-12.775 1.934-1.477 3.775-2.046 7.218-2.234l3.018-.164.71-2.281c.825-2.649 1.496-3.832 2.844-5.016 2.034-1.785 5.519-2.797 7.215-2.094 1.683.697 1.584-1.634 1.584 37.28 0 26.924-.076 35.62-.316 36.148-.624 1.37-2.57 1.792-4.9 1.064zm-2.617-23.583c.228-.595.192-7.066-.042-7.4-.107-.153-.759-.49-1.448-.749-1.403-.526-2.179-1.355-2.608-2.79-.61-2.033.804-4.473 2.922-5.043.56-.15 1.09-.46 1.177-.69.088-.228.16-1.939.16-3.8 0-4.14-.049-4.212-2.462-3.763-8.072 1.5-12.535 10.247-9.02 17.678.828 1.749 2.85 4 4.609 5.128 2.444 1.568 6.34 2.398 6.712 1.43zm17.652 23.615c-1.398-.813-1.333 1-1.343-37.166-.01-39.003-.109-36.66 1.575-37.358 1.697-.703 5.182.309 7.215 2.094 1.349 1.184 2.02 2.367 2.844 5.016l.71 2.281 3.018.164c4.53.247 6.959 1.354 9.205 4.195 2.284 2.89 2.884 6.818 1.65 10.814-.329 1.069-.539 2.1-.465 2.291.073.192.975.79 2.003 1.33 4.441 2.335 6.632 5.696 6.632 10.178 0 4.482-2.19 7.843-6.632 10.177-1.028.54-1.93 1.14-2.003 1.33-.074.192.107 1.164.4 2.16.758 2.568.92 4.225.59 6.018-.823 4.45-4.071 7.87-8.436 8.886-.768.179-2.432.282-3.698.23l-2.302-.094-1.135 2.11c-.624 1.159-1.52 2.505-1.99 2.991-1.912 1.974-6.25 3.276-7.838 2.353zm10.265-23.698c2.1-.653 3.938-1.852 5.559-3.626 6.504-7.116 2.513-18.75-7.042-20.526-2.424-.451-2.461-.392-2.461 3.897 0 3.843.11 4.16 1.548 4.476 1.08.237 2.366 1.601 2.708 2.872.559 2.075-.506 4.054-2.605 4.841-.69.26-1.342.596-1.449.749-.233.334-.27 6.805-.042 7.4.221.576 1.777.542 3.784-.083z" transform="translate(-43.923 -36.67)"/>
    <path style="fill:#000;stroke-width:.264583" d="M99.75 171.777c0-.652-4.971-12.2-5.334-12.39-.195-.104-1.664-.711-3.265-1.35-1.6-.64-3.592-1.476-4.426-1.86l-1.516-.697-5.169 3.434c-2.843 1.888-5.316 3.433-5.497 3.433-.18 0-5.027-4.7-10.771-10.446l-10.444-10.446 3.5-5.16c1.925-2.838 3.5-5.373 3.5-5.635 0-.26-.522-1.662-1.16-3.113-.636-1.45-1.373-3.324-1.636-4.163-.263-.84-.665-1.691-.892-1.894-.505-.45-11.315-4.971-12.055-5.041-.521-.05-.53-.244-.53-12.045 0-11.802.009-11.996.53-12.045.74-.07 11.55-4.591 12.055-5.041.227-.203.628-1.055.89-1.894.262-.84 1.066-2.856 1.786-4.481l1.31-2.957-3.457-5.175c-1.9-2.846-3.456-5.326-3.456-5.511 0-.186 4.7-5.037 10.446-10.78l10.446-10.444 5.17 3.5c2.844 1.924 5.33 3.499 5.527 3.499.197 0 1.533-.52 2.971-1.156 1.438-.635 3.388-1.428 4.334-1.761.945-.333 1.851-.736 2.012-.895.386-.382 4.936-11.248 4.996-11.931.046-.52.264-.53 11.997-.598 10.045-.058 11.95-.01 11.95.298 0 .202 1.11 2.97 2.465 6.153l2.465 5.787 2.629.95a92.608 92.608 0 0 1 4.824 1.92c1.207.532 2.37.968 2.585.968.214 0 2.528-1.429 5.141-3.175 2.614-1.746 4.904-3.175 5.09-3.175.185 0 5.034 4.698 10.775 10.44l10.438 10.442-2.899 4.284c-4.245 6.276-3.948 5.45-2.834 7.857.517 1.119 1.455 3.39 2.085 5.048.63 1.658 1.186 3.056 1.238 3.108.247.247 11.108 4.858 11.443 4.858.329 0 .383 1.688.383 11.907s-.054 11.906-.383 11.906c-.344 0-11.2 4.615-11.454 4.87-.057.057-.517 1.217-1.022 2.578a106.13 106.13 0 0 1-2.118 5.164l-1.199 2.69 3.193 4.78c1.756 2.628 3.193 4.93 3.193 5.115 0 .186-4.7 5.037-10.444 10.78l-10.445 10.442-4.974-3.366c-2.736-1.85-5.114-3.366-5.285-3.366-.171 0-1.3.436-2.507.969a92.61 92.61 0 0 1-4.824 1.919l-2.629.95-2.465 5.787c-1.355 3.183-2.464 5.95-2.464 6.15 0 .305-1.975.365-11.906.365-9.874 0-11.907-.061-11.907-.36zm7.956-21.759c.79-.233 2.003-.739 2.694-1.124l1.257-.702 1.256.703c2.136 1.195 4.11 1.632 6.666 1.475 4.586-.281 8.923-2.37 12.057-5.807l1.584-1.737 2.233-.444c2.839-.564 4.846-1.382 7.151-2.915 2.699-1.794 5.086-4.508 6.5-7.39 1.53-3.12 1.999-4.966 2.114-8.313l.094-2.732 1.965-2.057c3.553-3.718 5.179-7.473 5.406-12.484.273-6.02-1.427-10.458-5.67-14.81l-1.7-1.741-.094-2.756c-.117-3.388-.583-5.21-2.15-8.406-.999-2.035-1.62-2.884-3.505-4.784-1.933-1.951-2.703-2.517-4.946-3.638-1.526-.762-3.414-1.477-4.434-1.68-1.748-.348-1.791-.377-2.544-1.71-1.044-1.85-3.234-4.192-5.116-5.47-5.117-3.474-11.128-4.084-15.61-1.582l-1.257.701-1.257-.703c-3.16-1.768-6.904-1.986-11.081-.645-3.866 1.24-7.751 4.341-9.646 7.698-.753 1.334-.796 1.363-2.543 1.71-1.021.204-2.91.92-4.435 1.681-2.243 1.121-3.012 1.687-4.946 3.638-1.884 1.9-2.506 2.749-3.505 4.784-1.587 3.236-2.048 5.044-2.157 8.466l-.09 2.816-1.502 1.417c-2.385 2.251-4.05 4.92-5.188 8.315-.538 1.606-.612 2.327-.598 5.802.015 3.568.085 4.161.696 5.871 1.05 2.94 2.482 5.262 4.632 7.512l1.967 2.059.086 2.73c.104 3.316.575 5.16 2.12 8.31 1.414 2.883 3.8 5.597 6.499 7.39 2.308 1.535 4.315 2.353 7.151 2.914 2.201.436 2.253.465 3.647 2.007 1.604 1.775 4.128 3.665 6.03 4.516 3.222 1.442 7.475 1.908 10.169 1.115zm-4.534-8.317c-2.877-.471-5.223-2.386-6.846-5.588l-.986-1.944-3.417-.14c-2.972-.12-3.616-.23-4.94-.845-2.138-.992-4.262-3.087-5.285-5.213-.705-1.467-.852-2.112-.935-4.12-.082-1.985.014-2.75.577-4.597.37-1.218.616-2.31.545-2.425-.072-.116-1.052-.705-2.179-1.31-4.87-2.61-7.308-7.01-6.5-11.728.618-3.605 2.776-6.39 6.5-8.387 1.127-.604 2.107-1.193 2.179-1.309.071-.115-.174-1.207-.545-2.425-.563-1.846-.659-2.612-.577-4.596.127-3.071 1.08-5.207 3.235-7.244 2.287-2.163 3.856-2.758 7.727-2.931 1.771-.08 3.292-.217 3.38-.305.088-.088.4-1.026.693-2.083.681-2.459 1.097-3.243 2.53-4.775 2.02-2.16 5.915-3.369 7.729-2.398 1.419.76 1.366-.66 1.366 37.066 0 29.532-.058 35.08-.374 35.838-.566 1.354-1.765 1.805-3.877 1.46zm-3.745-23.232c.528-.336.337-7.988-.206-8.24-.218-.1-.87-.41-1.447-.69-3.442-1.658-2.843-6.468.928-7.445l.916-.237v-8.169l-1.724.018c-1.425.015-2.079.189-3.778 1.006-8.12 3.905-9.711 14.675-3.054 20.66 2.382 2.142 7.11 3.892 8.365 3.097zm18.371 23.19c-.547-.147-1.062-.55-1.388-1.084-.508-.832-.518-1.567-.518-36.171 0-34.519.012-35.341.514-36.166 1.325-2.173 5.989-1.321 8.666 1.584 1.36 1.475 1.771 2.264 2.443 4.69.293 1.056.605 1.994.693 2.082.088.088 1.609.226 3.38.305 3.871.173 5.44.768 7.727 2.93 2.154 2.038 3.108 4.174 3.235 7.245.082 1.984-.014 2.75-.577 4.596-.37 1.218-.616 2.31-.544 2.425.071.116 1.051.705 2.178 1.31 2.682 1.438 4.4 3.12 5.5 5.38 2.719 5.597.512 11.511-5.5 14.735-1.127.604-2.118 1.21-2.202 1.347-.085.137.123 1.05.46 2.029.492 1.422.616 2.338.616 4.558 0 2.591-.058 2.895-.852 4.517-1.04 2.128-3.176 4.228-5.3 5.213-1.323.614-1.967.725-4.939.846l-3.417.14-.987 1.945c-.542 1.07-1.49 2.46-2.108 3.089-1.848 1.884-5.058 2.996-7.08 2.454zm9.99-23.689c5.622-1.733 9.461-7.982 8.48-13.804a12.925 12.925 0 0 0-7.057-9.465c-1.647-.814-2.254-.975-3.741-.992l-1.775-.02v8.168l.916.237c3.771.977 4.37 5.787.928 7.446-.578.278-1.229.589-1.447.69-.543.251-.734 7.896-.206 8.252.42.282 1.997.075 3.901-.512z" transform="translate(-43.923 -36.67)"/>
    <path style="display:inline;fill:#000;stroke-width:.264583" d="M99.824 171.798c.071-.186-1.017-3.068-2.42-6.404l-2.548-6.065-2.567-.973a80.918 80.918 0 0 1-4.682-1.965c-1.163-.546-2.34-.933-2.616-.861-.276.072-2.736 1.652-5.467 3.511l-4.965 3.38-10.423-10.42c-5.733-5.732-10.423-10.504-10.423-10.605 0-.101 1.548-2.474 3.44-5.273 1.891-2.798 3.439-5.309 3.439-5.579 0-.27-.342-1.172-.76-2.005-.42-.832-1.203-2.704-1.743-4.16-.54-1.454-1.127-2.797-1.305-2.982-.459-.476-11.544-5.12-12.265-5.138l-.596-.015v-23.68l.596-.016c.721-.018 11.806-4.661 12.265-5.137.178-.186.766-1.528 1.305-2.983.54-1.456 1.324-3.327 1.742-4.16.419-.833.762-1.785.762-2.117.001-.338-1.524-2.85-3.474-5.726l-3.476-5.123L64.062 56.88c5.73-5.732 10.507-10.421 10.615-10.421.108 0 2.48 1.548 5.27 3.44 2.79 1.891 5.22 3.44 5.4 3.44.179 0 1.218-.425 2.31-.943 1.09-.518 3.156-1.387 4.59-1.93l2.609-.989 2.549-6.065c1.402-3.335 2.49-6.217 2.419-6.404-.105-.272 2.206-.339 11.788-.339 11.232 0 11.916.027 11.883.468-.04.526 4.492 11.409 4.94 11.862.158.16 1.398.672 2.756 1.137a60.032 60.032 0 0 1 4.733 1.891c1.246.576 2.435 1.047 2.643 1.047.207 0 2.585-1.505 5.284-3.343l4.906-3.343 10.422 10.419c5.732 5.73 10.421 10.504 10.421 10.607 0 .103-1.428 2.296-3.175 4.875-1.746 2.578-3.175 4.889-3.175 5.135 0 .246.497 1.505 1.103 2.799a71.855 71.855 0 0 1 2.05 4.967l.948 2.615 5.667 2.453c3.116 1.349 5.825 2.392 6.019 2.317.291-.111.353 1.964.353 11.828 0 9.864-.062 11.939-.353 11.827-.194-.074-2.903.969-6.02 2.318l-5.666 2.453-.948 2.615a71.855 71.855 0 0 1-2.05 4.967c-.606 1.293-1.103 2.602-1.103 2.909 0 .307 1.445 2.685 3.21 5.285l3.21 4.727-10.418 10.421c-5.73 5.732-10.497 10.421-10.591 10.421-.095 0-2.379-1.488-5.075-3.307-2.697-1.819-5.014-3.307-5.15-3.307-.136 0-1.246.458-2.467 1.019a64.84 64.84 0 0 1-4.733 1.894c-1.383.48-2.643 1.005-2.801 1.163-.446.449-4.98 11.333-4.94 11.86.033.441-.65.468-11.883.468-9.582 0-11.893-.066-11.788-.339zm7.47-21.501c.863-.225 2.196-.748 2.961-1.163l1.392-.753 1.658.872c3.907 2.055 8 1.87 13.165-.597 2.152-1.027 2.84-1.532 4.83-3.543 1.806-1.824 2.483-2.345 3.052-2.345 1.1 0 4.424-.982 5.97-1.764 6.857-3.468 11.003-9.952 11.053-17.286l.017-2.513 1.79-1.852c2.982-3.085 4.61-6.086 5.414-9.978a19.496 19.496 0 0 0-5.625-18.009l-1.583-1.51-.014-2.582c-.027-4.937-1.824-9.405-5.26-13.083-2.517-2.692-6.288-4.87-9.814-5.666-1.731-.39-1.79-.433-2.535-1.774-1.194-2.151-4.415-5.164-6.895-6.449-4.93-2.554-9.636-2.814-13.56-.75l-1.653.87-1.654-.87c-3.891-2.047-8-1.864-13.125.582-2.008.959-2.864 1.567-4.522 3.213-1.125 1.117-2.389 2.649-2.808 3.404-.744 1.341-.804 1.383-2.535 1.774-4.925 1.112-9.71 4.6-12.378 9.022-1.845 3.06-3.078 8.073-2.738 11.139.115 1.038.052 1.147-1.51 2.636-8.062 7.691-8.088 20.564-.055 28.226l1.572 1.5.024 2.592c.068 7.428 4.181 13.884 11.064 17.364 1.545.782 4.87 1.764 5.97 1.764.568 0 1.245.52 3.051 2.345 1.983 2.004 2.686 2.52 4.83 3.551 1.381.663 3.165 1.333 3.966 1.49l1.984.386c1.211.239 3.029.14 4.501-.243zm-4.91-8.934c-2.555-.718-4.326-2.334-5.933-5.414l-1.066-2.044-3.175-.018c-4.2-.024-6.157-.797-8.517-3.36-2.866-3.116-3.565-7.061-2.054-11.609.677-2.039.529-2.326-1.864-3.608-2.646-1.418-4.414-3.134-5.505-5.345-.79-1.601-.846-1.901-.846-4.504 0-2.603.057-2.903.846-4.503 1.092-2.21 2.86-3.927 5.505-5.344 2.393-1.282 2.541-1.57 1.864-3.608-2.029-6.108.137-11.57 5.6-14.126 1.596-.747 2.053-.834 4.814-.914 1.679-.05 3.135-.177 3.237-.283.102-.106.383-.958.623-1.894.615-2.395 1.477-3.96 2.907-5.278 1.674-1.544 3.308-2.229 5.384-2.258 1.521-.021 1.734.045 2.315.72l.64.741v71.379l-.604.702c-.733.852-2.369 1.075-4.172.568zm-2.53-23.09c.229-.596.192-7.59-.042-7.955-.107-.167-.69-.436-1.294-.599-.688-.185-1.407-.645-1.919-1.227-.681-.776-.817-1.153-.817-2.259 0-.73.184-1.683.41-2.119.434-.84 1.807-1.824 2.547-1.826 1.097-.002 1.276-.649 1.276-4.597 0-2.575-.1-3.865-.318-4.082-.42-.42-1.61-.397-3.351.067-8.054 2.143-11.918 10.9-8.114 18.386 1.83 3.603 6.352 6.563 10.1 6.612 1.01.013 1.403-.091 1.522-.401zm17.718 23.19c-.312-.134-.758-.517-.992-.851-.386-.55-.426-3.941-.426-36.252V68.714l.64-.742c.581-.674.794-.74 2.315-.719 2.076.03 3.71.715 5.384 2.258 1.43 1.318 2.292 2.884 2.907 5.278.24.936.546 1.813.679 1.95.132.137 1.165.222 2.294.19 3.995-.114 6.819.915 9.083 3.31 2.993 3.164 3.747 7.164 2.218 11.767-.677 2.039-.528 2.326 1.865 3.608 2.645 1.418 4.412 3.134 5.504 5.345.79 1.6.846 1.9.846 4.503 0 2.604-.056 2.903-.846 4.504-1.092 2.21-2.859 3.927-5.504 5.344-2.393 1.282-2.542 1.57-1.865 3.608 1.51 4.548.812 8.493-2.054 11.608-2.38 2.587-4.246 3.321-8.517 3.354l-3.175.025-1.068 2.048c-1.273 2.44-2.686 3.962-4.488 4.838-1.458.708-3.916 1.052-4.8.672zm11.68-23.92c4.548-2.16 7.275-6.498 7.275-11.572 0-5.846-3.828-10.77-9.56-12.295-1.74-.464-2.93-.488-3.351-.067-.217.217-.318 1.507-.318 4.082 0 3.948.18 4.595 1.276 4.597.74.002 2.113.986 2.548 1.826.225.436.41 1.39.41 2.12 0 1.105-.137 1.482-.818 2.258-.511.582-1.231 1.042-1.919 1.227-.605.163-1.187.432-1.294.6-.241.375-.267 7.367-.03 7.986.304.793 3.354.39 5.781-.762z" transform="translate(-43.923 -36.67)"/>
  </g>
</svg>